<svg xmlns="http://www.w3.org/2000/svg" viewBox="0 0 486.9 474.57"><defs><style>.cls-1{isolation:isolate;}.cls-2{fill:#dfad44;}.cls-3{fill:#cfd1d2;}.cls-4{fill:#6d6e70;}.cls-5{fill:#434244;}.cls-6{fill:#59595b;}.cls-14,.cls-15,.cls-7{fill:#ecb847;}.cls-8{fill:#7e523d;}.cls-9{fill:#5a3d2e;}.cls-10{fill:#ced0d1;}.cls-11{fill:#fff;}.cls-12{fill:#909294;}.cls-13{fill:#808083;}.cls-14,.cls-15{opacity:0.19;}.cls-14{mix-blend-mode:multiply;}.cls-15{mix-blend-mode:screen;}</style></defs><title>228311-P2FL7S-399</title><g class="cls-1"><g id="OBJECTS"><polygon class="cls-2" points="0 257.5 145.61 405.77 250 301.38 0 48.72 0 257.5"/><polygon class="cls-2" points="0 88.42 310.78 399.2 415.17 294.81 120.36 0 0 0 0 88.42"/><polygon class="cls-2" points="371.78 260.48 476.17 156.09 320.08 0 111.3 0 371.78 260.48"/><path class="cls-3" d="M483.18,453l-58.3-58.25L406,384.76l-2.49,2.49-10.63-10.61a8.29,8.29,0,0,0-10.92-.69l-59.1,45.75a3.14,3.14,0,0,1-4.14-.26l-11.9-11.88a3.17,3.17,0,0,1-.82-3,3.22,3.22,0,0,1,.82-1.44l-.94-.93h0l5.91,5.91a2,2,0,0,0,2.74,0l1.87-1.88-7.53-7.52,7.88,7.87a5.66,5.66,0,0,0,8,0l96.35-96.44a5.64,5.64,0,0,0,0-8l-.35-.35,1.87-1.88a1.93,1.93,0,0,0,0-2.74l-5.66-5.65h0l-6.87-6.86h0l-.72-.73a2,2,0,0,0-2.74,0l-1.87,1.88-.7-.7a5.64,5.64,0,0,0-8,0l-96.36,96.44a5.66,5.66,0,0,0,0,8l.7.7-1.87,1.87a1.93,1.93,0,0,0,0,2.74l6.64,6.63-1.06-1.06-1-.94a8.27,8.27,0,0,0,0,11.71l11.89,11.89a8.31,8.31,0,0,0,10.93.69L385.08,380a3.14,3.14,0,0,1,4.14.27l10.62,10.61,1-1h0l1.7-1.7h0l-4.1,4.11L397,393.71l10,18.91,58.3,58.25A12.66,12.66,0,0,0,483,471l0-.05a.94.94,0,0,0,.1-.1l.1-.1,0-.06A12.64,12.64,0,0,0,483.18,453Zm-8.92,14-4.16-4.16a3.53,3.53,0,0,1,2.48-6,3.59,3.59,0,0,1,2.49,1l4.16,4.16a3.52,3.52,0,0,1-5,5Z"/><path class="cls-4" d="M407,409.62l58.3,58.25A12.66,12.66,0,0,0,483,468l0-.05a.94.94,0,0,0,.1-.1l.1-.1c1.9-2.15-.43-7.74-5.3-12.6l-58.3-58.26Zm72.24,49.31a3.52,3.52,0,0,1-5,5l-4.16-4.16a3.53,3.53,0,0,1,2.48-6,3.59,3.59,0,0,1,2.49,1Z"/><path class="cls-5" d="M424.88,391.71,483.18,450a12.64,12.64,0,0,1,.16,17.74l0,.06c1.9-2.15-.43-7.74-5.3-12.6l-58.3-58.26Z"/><path class="cls-6" d="M409.92,406.68l58.3,58.26c4.87,4.86,11.44,6.21,14.82,3.07l0-.05a.94.94,0,0,0,.1-.1l.1-.1c1.9-2.15-.43-7.74-5.3-12.6l-58.3-58.26Zm69.31,52.25a3.52,3.52,0,0,1-5,5l-4.16-4.16a3.53,3.53,0,0,1,2.48-6,3.59,3.59,0,0,1,2.49,1Z"/><path class="cls-7" d="M404,284.1l17,17a5.64,5.64,0,0,1,0,8l-96.35,96.44a5.66,5.66,0,0,1-8,0l-17-17a5.66,5.66,0,0,1,0-8l96.36-96.44A5.64,5.64,0,0,1,404,284.1Z"/><path class="cls-8" d="M300.39,389.24l16,16-1.87,1.88a2,2,0,0,1-2.74,0l-13.25-13.24a1.93,1.93,0,0,1,0-2.74Z"/><path class="cls-9" d="M300.39,389.24l2.1,2.09-3.24,3.24-.73-.72a1.93,1.93,0,0,1,0-2.74Z"/><path class="cls-9" d="M309.36,398.2l7,7-1.87,1.88a2,2,0,0,1-2.74,0l-5.65-5.65Z"/><path class="cls-8" d="M404.74,284.8l16,16,1.87-1.88a1.93,1.93,0,0,0,0-2.74l-13.25-13.24a2,2,0,0,0-2.74,0Z"/><path class="cls-9" d="M404.74,284.8l2.09,2.09,3.24-3.24-.72-.73a2,2,0,0,0-2.74,0Z"/><path class="cls-9" d="M413.7,293.76l7,7,1.87-1.88a1.93,1.93,0,0,0,0-2.74l-5.66-5.65Z"/><path class="cls-10" d="M382.35,373.49l-59.1,45.75a3.83,3.83,0,0,1-5.05-.32L306.31,407a3.85,3.85,0,0,1-.84-4.16l-.47-.62.41-.56a5.45,5.45,0,0,1,.45-.52l-1.76-1.76a5.15,5.15,0,0,0-.45.53c-.22.29-.4.56-.4.56l-.55-.41a7.62,7.62,0,0,0,.94,9.61l11.9,11.88a7.6,7.6,0,0,0,10,.63l59.1-45.75a3.84,3.84,0,0,1,5,.32l10.63,10.62,2.66-2.67-10.62-10.61A7.61,7.61,0,0,0,382.35,373.49Z"/><path class="cls-11" d="M384.24,375.93l-59.1,45.75a6.93,6.93,0,0,1-9.12-.57l-11.89-11.89a6.92,6.92,0,0,1-.88-8.71s.18-.27.4-.56a5.15,5.15,0,0,1,.45-.53l-1-.94a8.27,8.27,0,0,0,0,11.71l11.89,11.89a8.31,8.31,0,0,0,10.93.69L385.08,377a3.14,3.14,0,0,1,4.14.27l10.62,10.61,1-1-10.62-10.61A4.52,4.52,0,0,0,384.24,375.93Z"/><path class="cls-12" d="M381.93,373l-59.1,45.75a3.14,3.14,0,0,1-4.14-.26l-11.9-11.88a3.17,3.17,0,0,1-.82-3,3.22,3.22,0,0,1,.82-1.44l-1-1a4.28,4.28,0,0,0-.8,1.13,4.54,4.54,0,0,0,.82,5.27l11.9,11.88a4.53,4.53,0,0,0,5.95.38L382.77,374a6.92,6.92,0,0,1,9.11.58l10.63,10.61,1-1-10.63-10.61A8.29,8.29,0,0,0,381.93,373Z"/><polygon class="cls-13" points="397.02 390.71 398.4 389.33 409.75 406.85 406.99 409.62 397.02 390.71"/><polygon class="cls-4" points="419.69 396.9 409.75 406.85 398.4 389.33 403.37 384.36 419.69 396.9"/><polygon class="cls-6" points="424.88 391.71 419.69 396.9 403.37 384.36 405.97 381.76 424.88 391.71"/><line class="cls-2" x1="153.73" y1="402.93" x2="246.5" y2="310.77"/><path class="cls-2" d="M242.45,311.27c.17-.25.58-.21.59,0,.17-.7.48-.4,0-1,0-.53.66-.47.56.05l.48-1.1-.56.39c-.29-.56.89-.62.54-1.27l-.82.89-.1-.19c0,.35-.48.66-.67.73-.05-.09-.18-.19,0-.35-1.07,1,.47,1-.25,2A.57.57,0,0,1,242.45,311.27Z"/><path class="cls-2" d="M240.53,311.09l.17.9-.74.46c.18.19-.11.78.35.65a.64.64,0,0,1,.2-.33c.33.47-.61,1,0,1.23.38-.58.54-.57.51-1.19a2.76,2.76,0,0,1,1.24-.68c.07-.19-.16-.45,0-.67l-.1.13-.62-.59c0,.27-.2.34-.34.5v-1.41c-.79-.34-1.15.68-1.67.72C240.32,311,239.44,311.34,240.53,311.09Z"/><path class="cls-2" d="M242.19,311.46v0Z"/><path class="cls-2" d="M192.74,367.57a.37.37,0,0,0,0,.44l1.69-1.69c-.21-.11-.9.18-.67-.24-.32,0-.61.56-.46.84l-.12-.37c-.08.7-.95.36-.88-.08l0,0,.1,2.27C192.85,368.45,192.28,368.06,192.74,367.57Z"/><path class="cls-2" d="M157.3,401.57c.17-.28.14-.36,0-.4A1.68,1.68,0,0,0,157.3,401.57Z"/><path class="cls-2" d="M192.41,369.31l0,.71A1.87,1.87,0,0,0,192.41,369.31Z"/><path class="cls-2" d="M189.11,361.29s0-.05-.07-.06l0,.34h0Z"/><path class="cls-2" d="M186.11,378.36l-.09.14A.55.55,0,0,0,186.11,378.36Z"/><path class="cls-2" d="M191.58,354.58l-.4,1.11c-.07-.27-.38.14-.42-.21,0,.08-.23.42-.07.43l.14-.16c.1.89.53.84.24,1.87.7-.11.62-.56.61-1a1.58,1.58,0,0,1,.13-.26l-.06-1.32Z"/><path class="cls-2" d="M165,388.31l0-.05A.11.11,0,0,0,165,388.31Z"/><path class="cls-2" d="M164.86,388.07l.12.19C164.94,388.14,165,387.91,164.86,388.07Z"/><path class="cls-2" d="M192.21,368.86a1.18,1.18,0,0,1,.2.45l0-.53A.91.91,0,0,1,192.21,368.86Z"/><path class="cls-2" d="M191.71,367.21l.57-.7,0-.49A11.75,11.75,0,0,0,191.71,367.21Z"/><path class="cls-2" d="M187.4,377.65c-1.24,1.39-.26-.9-1-.44-.3.43-.15.83-.29,1.15.81-1.28.76,1.05,1.67-.14.35.65-.22,1.3-.71,1.52-.88-.08,0-.7-.38-1.27-.34.5-.18.51-.09,1-.77.55-.78,2-1.84,1.68-.38.58-.12.78-.14,1.31.46.57,1-.44,1.57-.21-.08,0-.24,0-.29-.11l.52-.31c-.57.22-.46-.57-.29-.82s.43-.48.53-.3l-.13.34c.47-.13.29-1,.88-1.06.13.1.07.27.12.36,0-.7.37-1,.64-1.79l.21.81c-.15-1,1-1.76,1.91-2.11-.16,0-.35,0-.37-.12.27-.51.91-.45,1,0,0-.8,1.79-1.07,1.75-2.13l-.23-5a1,1,0,0,1-.14.42c-.66-.24-.72-.07-.77-.87-.13.61.37.83-.17,1.4,0-.44-.46-1-1.05-.54-.88,1.77-.49,3.92-1.08,5.81-.39-.3-1.26.76-1.82,1.15a1.57,1.57,0,0,1,.35-1.44c-.25.2-.66.58-1,.85Z"/><path class="cls-2" d="M189.33,373.42l-.17,0A.24.24,0,0,0,189.33,373.42Z"/><path class="cls-2" d="M187.88,375.85l0-.05-.09.15Z"/><path class="cls-2" d="M191.12,368.39c0-.18,0-.26,0-.44,0,.08-.05.17-.08.26S191.05,368.38,191.12,368.39Z"/><path class="cls-2" d="M192,368.74l.1.18.11-.06C192.15,368.78,192.07,368.72,192,368.74Z"/><path class="cls-2" d="M179.26,379.51l-.06.2A.19.19,0,0,0,179.26,379.51Z"/><path class="cls-2" d="M185.35,378.52c.42-.49-.46-.57.19-1.22l-.23.16a8,8,0,0,1,1.7-2c.14.27.58-.08.84.3a1.79,1.79,0,0,0,.47-1.41c.34-.13.41-.77.84-.93-.32-.07-.23-1.07-.72-.12,0-.08,0-.09,0-.17-.74.19-.47.83-.87,1.24-.43,0,.09-.7-.21-.55-.33.67-1.8,1.33-1.06,2a.63.63,0,0,1-.76.28c.19,1.34-2.47,1.79-1.49,2.77a2.59,2.59,0,0,0,.64-1.09Z"/><path class="cls-2" d="M190.41,369.2s-.07.07-.1.08Z"/><path class="cls-2" d="M199,366.31l.45.83a23.09,23.09,0,0,1-2.44,2.42c-.16,0-.1-.19-.07-.28-.59.74-1.73,1.6-1.93,2.38-.21.21-1,.56-.95.16a.75.75,0,0,1-.25.43c-.26-.2.2-.33,0-.52-.11.08-.19.07-.14.16,0-.35-.94-.62-.19-1.34.83.25-.45.58.31,1,.25-.24,0-.44-.06-.53.33-.3.47-.14.59,0-.07-.31.58-.44.47-.89.57-.65.41.48.8.08l-.36-.83.77-.54c.75-1.17-1.17-.91-.41-2.34.17.46,1.13.55,1.76.17-.28.33-.45,1.28-1,1.49,1-.08-.71.82.11,1.07a1.51,1.51,0,0,1,.94-1.23l-.06.17c.44-.31.1-1.23.87-1.51.24-.28.36-.06.45.13C198.79,366.49,198.87,366.17,199,366.31Zm-.44.69-.41.28C198.34,367.3,198.46,367.17,198.56,367Z"/><path class="cls-2" d="M235.73,316l.16-.06A.23.23,0,0,0,235.73,316Z"/><path class="cls-2" d="M204.6,346.48l.22-.19A.7.7,0,0,0,204.6,346.48Z"/><path class="cls-2" d="M207.15,340l.16-.43A.67.67,0,0,0,207.15,340Z"/><path class="cls-2" d="M233.29,318.35h0a.25.25,0,0,1,0,.08Z"/><path class="cls-2" d="M217.63,332.38a.79.79,0,0,0,.3,0A.3.3,0,0,0,217.63,332.38Z"/><polygon class="cls-2" points="207.12 340.07 207.15 340.07 207.15 339.99 207.12 340.07"/><path class="cls-2" d="M200.86,346.7c0,.06-.05.12-.07.19A.32.32,0,0,0,200.86,346.7Z"/><path class="cls-2" d="M202.84,348.13a.67.67,0,0,0-.07.18Z"/><path class="cls-2" d="M194.7,353.88l-.18.36A.64.64,0,0,0,194.7,353.88Z"/><path class="cls-2" d="M201.73,348.45a.56.56,0,0,0,0,.12C201.79,348.51,201.77,348.46,201.73,348.45Z"/><polygon class="cls-2" points="239.24 316.08 239.23 316.1 239.29 316.18 239.24 316.08"/><path class="cls-2" d="M239,314.55l.19-.28A.7.7,0,0,0,239,314.55Z"/><path class="cls-2" d="M222.54,329.43c.15,0,.43-.05.45.13C223,329.3,222.69,329,222.54,329.43Z"/><path class="cls-2" d="M241.66,321.16a1.51,1.51,0,0,1-.06-.35C241.59,321,241.57,321.16,241.66,321.16Z"/><path class="cls-2" d="M241.6,320.81c0-.1,0-.19,0-.28A1.27,1.27,0,0,0,241.6,320.81Z"/><path class="cls-2" d="M225.66,336.24a.2.2,0,0,0-.17,0C225.59,336.3,225.63,336.29,225.66,336.24Z"/><path class="cls-2" d="M239.51,314.17c-.1-.19.63-1.53-.32-.73-.41-.48.36-.77.48-1.11-.27.07-.2-.37-.41-.48-.06.17-.07.44-.29.59-.29-.11-.14-.54.16-.69-.51,0,0-.7-.57-.49a4.45,4.45,0,0,0-1.07,3c.38-.59.78-1.25,1.35-1.46l.22.55c-.78.1-.8.62-1.28,1l1.19-.77c.78-.13.54.24.25.68A.28.28,0,0,1,239.51,314.17Z"/><path class="cls-2" d="M242.21,318.21h0s0-.06,0-.08Z"/><path class="cls-2" d="M202.51,361.64l.06.24C202.58,361.74,202.56,361.67,202.51,361.64Z"/><path class="cls-2" d="M239.77,316.93Z"/><path class="cls-2" d="M204.64,359.59l0,0Z"/><path class="cls-2" d="M196.94,350.71l-.07,0C196.85,350.74,196.89,350.73,196.94,350.71Z"/><path class="cls-2" d="M204.61,359.55l0,0Z"/><path class="cls-2" d="M213.42,348l-.21-.05C213.23,348,213.29,348,213.42,348Z"/><path class="cls-2" d="M210.84,349.41h0Z"/><path class="cls-2" d="M220.33,328.17a1.19,1.19,0,0,0-.22.25A.67.67,0,0,0,220.33,328.17Z"/><path class="cls-2" d="M204.67,359.63a.78.78,0,0,1,0,.24A.74.74,0,0,0,204.67,359.63Z"/><path class="cls-2" d="M214.56,343l0,.1.06,0Z"/><path class="cls-2" d="M215.9,342.22a.65.65,0,0,0,0,.2c.22-.54,1.08-1.05.75-1.54-.11.14-1,.55-1.14.2-.16.36-.83.46-.91.67.66-.21.39.3.24.72-.38.15-.28-.38-.58-.23l-.57.66.59-.48.23.56,0-.09C215.29,341.81,215.23,343.39,215.9,342.22Z"/><path class="cls-2" d="M216,342.42a.69.69,0,0,0,0,.24A.23.23,0,0,0,216,342.42Z"/><path class="cls-2" d="M220.27,339.41a.65.65,0,0,0,.1-.22Z"/><path class="cls-2" d="M192.77,365.63c.13.1.9-.18.59-.47l-.57.37Z"/><path class="cls-2" d="M228.54,327.7a.73.73,0,0,0-.18.17.25.25,0,0,0,0,.08C228.45,328,228.51,327.79,228.54,327.7Z"/><path class="cls-2" d="M215.58,340.78a.46.46,0,0,0,0,.3A.38.38,0,0,0,215.58,340.78Z"/><path class="cls-2" d="M229.29,328.39a1.07,1.07,0,0,1,.53.13c.16-.14.11-.41.21-.62A1.19,1.19,0,0,1,229.29,328.39Z"/><path class="cls-2" d="M230,327.88v0Z"/><path class="cls-2" d="M192.33,365.81a1.72,1.72,0,0,1-.07.21v-.16l-.45.27a1.74,1.74,0,0,1-.1.19.19.19,0,0,0,0-.12l-.15.08a13.24,13.24,0,0,1-.48,1.93,2.38,2.38,0,0,1-.63,1c.2-.18.39-.5.14-.6-.57.21-1.28-.12-1.52,1l.4-.4-.23,1.57c-.59,0,.11-.79,0-1.15-.36,1-1.83.71-1.57,1.62-.39-.3-1-.81-1.46-.32.72.07,0,.53.67.68,0,.36-.64.39-.41.67l-.1-.18c-1.32.22-.73,1.34-.78,2-.8,1.07-1.45,1.28-2.15,2.09-.26-.2-1.11-.63-1.39-.3.17.45-.38,1.29-.05,1.76.72-.38.12-.79.35-1.21.69.16.44.4,1.06.28-.46.13-1.14,1.57-1.86,1.5l.06-.17c-.76.28-1.85-.61-2.13.86l-.17.66c0-.06-.07-.11-.09-.16-.73.64-1,0-1.39,1.11,0-.08-.05-.09,0-.18-.66.2-.64,1.09-.87,1.51-.53-.14-.28-.38-.4-.75a4,4,0,0,0-1.2,2.89l-.68.29c.15-.43.15-1.13-.14-1.25-.2.34,0,.44-.43.76a4.18,4.18,0,0,1-.28-1.09c-1.14.42.58.94-.62.83-.25.24-.09.69.15,1l-.79.1c.28.38-.25.95-.57,1.36.1.18.64.06.65-.2.24.28,0,.79-.28,1-.78-.6-1.52,1.71-2,.6a44.19,44.19,0,0,0-2.83,4c-.43.05-.93.53-1-.09-.9.89-.65,2.06-1.73,2.75-.16,0,.4-.41.14-.6-.31.85-1.35.75-2.07,1.83a.37.37,0,0,0,0-.44c.13.1-.13.6-.25.95-.19.07.09-.26-.07-.28-2.08,1.4-2.47,3.65-4.23,5.34a1,1,0,0,0,.05-1.32l-.49.48c0,.41-.32.77-.46,1.24-.12,0-.36,0-.31-.25-1.42.49-.67,2.32-2.08,3.25l.5-2.34-.67,0,.21-1c-.62.12-.37,1-.76.72,0-.17.21-.33,0-.52-.5.22-.27.5-.47.84,0-1.41,1.41-2.78,2-3.7.07-.17.07.27.12.36.28-.32.69-.28.95-.79-.06-.53-.4,0-.62.12-.23-.29-.12-.37.05-.61.39.3,1.28-1,2-.88,1-1.23-1.07-.72.18-1.66l.72.07a5.92,5.92,0,0,1,1.7-2.66l-.14.16c.06.27.34.21.5.22.71-.37.72-1.34,1.45-1.27a13.48,13.48,0,0,1,1.43-3.31c.71.33-.49,1.37-.46,2l.64-.65a1.38,1.38,0,0,0-.3,1.3c.67-.47.4-1.11.81-1.78.1.19.26.2.51,0l-.28-.42s.09,0,.19,0l.75-1.16c-.35.05-.66-.24-.92,0,.29.11.12.36-.13.6,0-.44-.43,0-.61-.14a8.11,8.11,0,0,0,1.3-1.56l.42.22c.56-.39.88-1.07,1.29-1.29l.07.27c.66-.47,1-1.23,1.83-1.42a24.9,24.9,0,0,0,.52-2.6c-.19-.63,2-.95,2-2.1.08,0-.08.7-.12,1,.44-.32.23-1.13.78-.81-1,.7.39.3.13.8a2.69,2.69,0,0,0,.78-1.25c-.65.65-.37-.83-.84,0a3.29,3.29,0,0,1,1.44-2.16c.18.2.34.21.64.06l-.09-.45c.34-.23-.22.87.44.4.13-1.05,2-1.49,1.43-2.6.78-.11-.51,1.18.58.93-.09.7-1,.88-.68,1.44.26-.5.5.22.75,0l.17-.69-.12.08c.32-1.12,1.65-2.05,2.5-3,.34-1.2.26-2.36,1.23-3.24,0,.53,1-.52.9.53.65-.21.81-.9.63-1.09-.44.31-.19.07-.6.3a1.16,1.16,0,0,1,.85-1c-.11.08,0,.08,0,.17.61-.29,0-.44.23-.86.42.22.81-.63,1.27-.76l0-.88c.06.53.52-.31.86-.1.11-.52,0-1.15.55-1.54,0,.35.66-.2,1,.09,1.09-.51.52-2.15,1.71-2.48,0,.09.09.45.39.3.1-.26.44-.53.6-.75h0v0c.08-.1.1-.2,0-.27a4.13,4.13,0,0,1,.28-2c-.39-.3-.8.37-.92.71l.14.54c-.71-.33-.48.66-.8.63-.23-1,1-1.93,1.3-3-.88-.08-1.83.72-2.53,1.53l.54-.13-.39.41.75,0a11.4,11.4,0,0,0-1,1.05c.4-.4,1-.08.72.07-.78.1-.24.68-.6,1,.22-.16.47-.4.51,0-1.09.25-1,.7-2,.87.65.5-.71.81-.33,1.38l.33-.24-.25.95c-1,.08,0-1-1.16-.46-.84.71-.22,1.3-.79,1.95a2,2,0,0,1,.57-1.8l-.47.14c0-.36.69-1,1.05-1.31-.17.95.38-.15.95-.09-.29-.38-.6,0-.43-.66a3.88,3.88,0,0,1-1.06.87c1.25-.94-.15-2.13,1.09-2.81-.3.59.63.33.84.43a5.76,5.76,0,0,0,.6-1l-.63-.32c.36-.76,1.56.06,1.71-1.08-.2-.37-.66.47-.6.3.59-1.18,1.67-.73,2.81-1.15a1.6,1.6,0,0,1-.38-1c.2.38.55.32.45.84.38-.14.48-.66.6-1-.71.37-.18-.64-.25-.91.33-.23.19.37.1.63.31-.15,1,0,.7-.55.31.29.15,1.42-.19,1.92l.33-.23c0,.35-.12.34-.45.57a.86.86,0,0,1,.89.53c-.08,0-.05-.1-.13-.1-.3.14-.4.4-.18.51.19.61.56-.06.92,0l.26-.43-.11-2.47c.35-.65.89-.57,1.46-.75l-.24-.45c.47-.4,1-.7,1.16,0-.14-.1-.17,0-.28.06a.3.3,0,0,1,.05.17l0,.09.59-1c-.3,1.3.59.67,1.07,1.42l.6-1c-.68.29-.31-.29-.22-.55.4.3.65-.64,1-.88l0,.1a2.45,2.45,0,0,0,1-1.05,9.11,9.11,0,0,1-.42-1.63c-.69.43-.49,0-.75-.21.08,0,.19-.14.15-.2s-.24,0-.37-.12c-.43.75-1,1.41-.76,2.13.4,0,.1-.52.46-.57,0,.62-.42.93-.92,1.41l-.45-.13-.35.65c.06-.36-.37-.54.1-1.11-.34-.21-.46.57-.87.8l.22.55c-.15-.28-.88.36-.68-.42l.47-1.1-.48-.05.6-.73,0,.35c.81-1.33,1.08.46,1.71-1.07-.13-.81.18-1.22,1-1.76-.38.58.28.38.37.83.68-.29.46-.84.53-1.28.37.13.66.24.19.64.46.57.49-.66,1.06-.17,1.43-1.45-.55-2.87,1.8-3.89l.15.28c.81-1.33,1.68-1.69,2.51-2.85l1.33-.23c-.1.26-.16,1.13.32,1.18-.93-.18-1.14.42-1.85.53.1.18.37.12.53.14-.25.24-.62.11-.85.54.13.09.62-.12.42.21l-.78.1c-.44.76.51,1.11-.34,1.65a2.12,2.12,0,0,1-.15-1.48c-.38.25.25-.61-.22-.5,0,.91-.59.77-.93,1.66,0-.13-.06-.24.07-.42l-1.08.7c.48,0-.45,1,0,1.32,1.11-.77.6-.74,1.9-1.58a2.54,2.54,0,0,0,0,1.73.08.08,0,0,0-.09,0c.22.55.49.49,1.16,1.16,0-1,.73-.9,1-1.75-.26-.48-.81-.14-1,.25l.27-.76.07.27,1.42-1.16c-.23.26-.1.56-.07.85a1.93,1.93,0,0,1,.73-.29c-.39-.32-.61-.59-.44-.75a3.05,3.05,0,0,1,2.41-.79l.07-.12c-.5-.22-.05-1.24-.16-1.87.36.39.65-.2,1.08-.25a2.32,2.32,0,0,0-1.7-1c-.17,1,.08.71.37,1.54l-.54,1.27-.14-.55c-.6.3-.59,1.19-1,.71-.05-.54.52-.75.46-1.28l-.46.13c.09-1,.69.15,1-.79-.61-.14,0-.08,0-.61-.48,0-1,1.23-1.47.39.06-.61,1.87-.35,1.68-1.43l.05.09a1.64,1.64,0,0,0,.6-1.62c.49-.07.58-.74.85-1.06l.18.19.35-.49c.13.54-.51.48-.82.89l.39.3c-.83,0-.48.91-.51,1.53.17-.77,1.42-1.24.85-2l.64.06,0-.26c.48,0,.66.68.32,1.18-.16,0-.24,0-.29-.12a1.29,1.29,0,0,1-.5,1.19l.06-.44a2,2,0,0,0-.87,1.77,18.59,18.59,0,0,0,2.64-2.31,20.18,20.18,0,0,0-1.31-2.59,3.6,3.6,0,0,1,1.76-1.69l.1.19a1.11,1.11,0,0,0,.57-.66c.43,0,.22.56.49.49l.52-1c.29.37-.36,1-.64,1.34,0-.08.09-.25,0-.26-.5.22-.6,1.44-1.23,1.12-.09.26,0-.7-.61-.14-.58.21-.28.77-.18,1s.88-.36.88.08c.29-.33.17-.69.74-.9-.28.33-.32,1.12-.77,1-.25.94.71,1.74,1,1.51-.34-.21.76-1.43-.38-1,0-.71.64-1.35.89-2l0,.09.48-.66c0,.18-.07.43.11.62l.3-1.29c-.12.78.51,0,.86-.09-.2-.38-.1-.9-.56-.76s0,.35-.32.67l0-.88h.08l-.11-.63c.62-.56.6,1.11,1,0l-.6-.4c.94-.8,2.63-1.35,3-2.19a1.31,1.31,0,0,0,1,1,5,5,0,0,0-1.21,1.16c-.16,0-.11-1.08.41-1.38-1-.62-.55,1.54-1.43.75-1.34.76,0,1.59-1.37,2,.36.38-.07.43.21.81.87.35,1.18-1.21,2-1.58,0,.09-.09.26,0,.35a1.47,1.47,0,0,0,.77-1h-.08c.14-.87.59,0,1-.17.06-.17.58-.48.25-.68l.89-.18-.44-.4c.28-.33.62-.11.64-.64l-.35-.39-.89.62c.26-.5-.25-.46.1-1-.07.88.54-.12.93.18l.1-.52,0,.18c.43,0,.15-.43.48-.66-.54.12-1,.08-1.18.77a5.2,5.2,0,0,1,.62-1.53c.17-.48.69-.43,1-.69-.43.74,1.33.93-.11,1.83-.05-.09.06-.17.14-.16-.63-.32-.67.73-.74,1.16.33.21.13.55.74.25-.33,0-.23-1,.42-1.19l.51.66.7-.55,0,.08c.61.15.59-.73,1.25-.94.1-.52,1.46-1.54.33-1.64.76,0,.63-.83,1-1.33l-.76.29c.2-1,.29-.59.13-1.76.21.11.45.14.52.41.86-.8,2.22-1.82,2.23-2.79.62-.56,1.4,0,2-1.05.09-.26-.68-.42,0-.8.08,0-.09,1,.47.31,0-.88,1.27-.76,1.44-1.71.47-.14.92-.71,1.17-.25-.55.39-1.15,1.13-1.08,1.4-.15-.28-.54.13-.36-.39-1,.44-.24.69-1.07,1.14.1.18.72.07.74-.2.48.49-1,1.49.12,1.51.73-.63-.08-1.86,1-1.93.06.53-.56.65-.36,1.46l.69-.28v-.71l0,.1c1.31-.41.3-1.3.82-2.31-.78.1-.74-.95-1.28-.82.46-.58.9-.89,1.39-.4-.57,1.35.46.57.05,1.94.32,0,.5.93,1.08.45.26-.94-.58-.23-.14-1a.24.24,0,0,1,.21.11c0-.53.41-.23.46-.84l0,.18c.7-.11.11-.78.79-.81-.5-.22-.06-.53-.07-1-.49.22-1.2-.11-1.88.62.2.37.41.48.26.91l.42-.49c-.05.14-.05.29-.09.44l-.58.29c.35-.76-.21-.82-.27-1.35.64-.38.34-.5.76-.72.38.45,1.7-.26,2.55-.57-.1.07-.21.2-.28.25-.17.69.64.06.77.16l.1-.52c0,.09,0,.27.18.19.34-.49-.1-.89.25-1.38.26.2.25.9.64.76.29.12,1.11.37,1.46-.39a.78.78,0,0,1,.18-.53s0,.08,0,.1l.62-.11c.08.71-.83.45-.75,1.16l.35.4a1.53,1.53,0,0,0-.38,1.1c.44-.32.42-.49.76-1,.3.18.18.65.16.72l-.15-.28c-.81.19-.4,1.11-1.09,1.66-.11.08-.08,0-.13-.1-.15.87-1.14.87-1.16,1.83l0-.35c-.18.49-.47,1.51-.77,2.52l.14.15c.16,0-.09.26-.28.33h0c-.15.5-.3,1-.44,1.36a.81.81,0,0,0,.5-.12c-.07-.27.67-.73.2-1,.51,0,.63-.82,1-.88-.63.12-.11-.62-.26-.9.37.12.53-.57.82-.19.15,0-.41,0-.37.32-.08.69,1-.44.79.34.39-.85,1.3-1.56,1.64-2.5l-.49.22c.33-.23.93-1,1.14-.86-.18.25-.43.49-.63.82.36.39.64-.64.9-.44l.17-1.4-.36.32c0-.44,1-.88,1.56-1.36.2.82-.79.81-1.14,1.58-.22.59.74.24.48.74a.49.49,0,0,0,.45-.49l.24-.06c.12.81-.75,1.47-.86,2.38a.66.66,0,0,0-.06-.26,2.26,2.26,0,0,0-1.23,1.12c.35-.05.33-.23.39-.4.13.1-.18.51-.19.77.49-.22.34.21.64.06a1.43,1.43,0,0,1-.67.73c-.33,0-.12-.36-.38-.56-.16.43-.84,0-1,.7.66-.47.35.65.31,1l.11-.08c.09.45-.06.61-.43.49.13-.34.43-.49.09-.7a2.08,2.08,0,0,0-.38.58l0-.35-.71.82a8.09,8.09,0,0,0,.51,1.36c-.41,0-.48.4-.57.66l0-.18c-.54.12-1.12,1-1,1.32-.43.05.35-3.06-1.16-1.17-.64.65.28,1.09.15,1.69a.21.21,0,0,0-.13-.1c-.34.23-.11.52-.23.86.27-.06.52-.3.51-.48.19.37-.62.56-.61,1-.16-.72-.72.38-.72-.07a1.8,1.8,0,0,0-1.07,1.84c-.94-.17-.6.74-1.48,1.1.12-.08.21-.33.4-.4,0-.71-.83.45-.6-.41-.06.17.18.19.24,0s.21-.6,0-.7l-.81.19.09-.26-1.2.33c.05.09.21.11.29.11a28.26,28.26,0,0,0-2.69,2.66c.84,1.14-1.49,2.33-1.52,3.56a1.86,1.86,0,0,0-.83-1.14c.1-.18,0-.87.39-1.1.21.11.78-.1.71.33.77-1-.55-.32-.66-.94-.87,1.06-.87,2.21-1.25,3.05l-.13-.1-.25.69c.45-.32,1,.26.3.55l0-.08c-.51,0-.82.89-1.29,1.29l0,.62c-.47.39-1.09-.19-1.6-.41-.72.63-.62,1.52-.82,2.3-.48-.05-1.57.91-1.34.05-.39.85,1.14,2.14-.7,2.4l0-.52c-1,1.06-1.9,3-2.64,3.19-.53-1.28-2.18.33-3.26-.39.26.15-.05.6,0,.76-.19,0-.43,0-.39.35.57-.21.64,1.21,1,.09a2.65,2.65,0,0,1-.65,2.77l-.36-.39.77-.54c-.34-.21,0-.53,0-.8-1.44,1-.71-1-1.92.27.12.36.1.18-.14.6.15-.16-.08-.45-.34-.21l.06.54c-1.06-.19.33-1.13-.48-1.2.19-.77.88-1.77.25-2.09-1,.62.17,1.61-.88,2.21l-.29-.11c-.15.43.13.8.17,1.16-.13-.1-.29-.11-.51,0a23.45,23.45,0,0,0-.19,2.36c.82-1.59,1.4-.66,2.3-2.25,0,.35-.8,1.34-.35,1.91l-.36-.39a2.6,2.6,0,0,1-1.06,1.58l.11-.52c-.42.93-1.69.55-1.61,1.7a1.08,1.08,0,0,0,.43-.49,2.87,2.87,0,0,1-1.1,1.22l-.17,1.4c-.18-.19-.68.29-.74-.25-.85.28-.56,1.1-.79,1.51-1,.18.32-.67-.13-1.24a3.84,3.84,0,0,0-1.77,2.39c.23-.09.38-.1.46,0-.14-.09-.43.25-.61.43l.12.36c-.47.13-.57,0-.49-.49-.34.24-.21,1-.85,1,.19-.77,1.07-1.13,1.14-1.56-.78,1.24-1.76.27-2.74,1.86-.13-.1-.14-.55-.39-.3-.48.66.35.65.44,1.09.29-.59.64-.64,1.21-.59l.07.31c-.12-.08-.4.19-.58.17l.33.48a.82.82,0,0,0-1.38.13c.68,0,.57.05,1.17.46,0,1-1,.08-1.07,1.14-.1-.19.27-.77-.25-.47-.36.33,0,.63-.09,1-.11-.62-.45-.83-.61-1.55a3.19,3.19,0,0,0,.69-1l-.82.19c.46-.57,0-.8-.14-1-1.26.5-.11,1.22-.77,1.69,0,.53.58-.47.42.22-.59.47.12.36-.32,1.11l-.07-.27c-.4,0-.31.42-.48.66s1.54,1,.61,2a.68.68,0,0,0-.15-.27l-2.16-4a24.94,24.94,0,0,1-3.49,2.89c-.86-.35.3-1.3,0-1.5l.64-.39c.23.29-1,1.14-.08,1.14.72-1.08,1.42-1.19,1.75-2.57-.87-.34-1,1.23-2,1.31a1.44,1.44,0,0,0,.5-.73l-1.93,1.4,0,.28a8.9,8.9,0,0,1,.85-.56,1.25,1.25,0,0,0-.29,1.74l.11-.08-.05.33ZM157.81,399.9a.53.53,0,0,0-.08-.23C157.78,399.75,157.84,399.77,157.81,399.9ZM201.24,354c-.77.64-1.6,1.22-2.34,1.85,2.11-.34,3.63-.53,1.57,1.49l-.07.19a3.53,3.53,0,0,0,1.22-1.09,18.19,18.19,0,0,0-.08-3c-.37-.13-.29.32-.59.47Zm2,1c.5-.3.22-.41.11-.65l-.36.49A.23.23,0,0,1,203.21,355Zm-.09-.8a.26.26,0,0,1-.14.07Zm-8,7.53,0-.05-.33.25A.68.68,0,0,0,195.09,361.7Zm1.24-.38-.22-.41-.31.23A.78.78,0,0,0,196.33,361.32Zm3.67-1.54c-.22-.55.32-1.11-.09-1.6-.08-.14-.24-.07-.41,0l-.5.43a.4.4,0,0,1,.09.27c.22-.1.44-.1.64.24-1-.18.05.8-.55,1.09C199.35,360.69,200,360,200,359.78Zm33.62-35.7.38.14-.1.54c-.66.47-1.75.28-1.72,1.34a2.16,2.16,0,0,1-1.16-.19,2.49,2.49,0,0,1,.4-.24C232.05,323.44,233,325.78,233.62,324.08Zm-7.31,5.7a.26.26,0,0,0,0-.18,7.57,7.57,0,0,1-2,4c.46.19,1.32-.17,1.75-.32l.11.62-.45-.13-.12.79c.37.12.68-.29,1.12-.34-.05-.09.29-1.29.29-1.74l-.88.36a4.25,4.25,0,0,0,1.24-1.38c-.18-.19-1,.08-.69.55-.34-.21.3-.85-.4-.74.19-.78,1.21-1.3,1.7-1.52l.52.4c.57-.21-.29-.82.45-1-.49.66.6.41.18.89.31,0,.48.49.91,0-.23-1,.86-.09.68-1,.43-.05.11.62.67.24a1.32,1.32,0,0,0-.45-1.54c-.63.38,0,1.14-.52,1.45l.07-1.59a.59.59,0,0,0-.45.27,1.2,1.2,0,0,0,.12-.74c0-.15,0-.29,0-.41-.47.46-.89.86-1.16.74l-.15-.28c-.36,0-.47.39-.44.68-.4.43-.52,1.15-.89,1l0-.35A11,11,0,0,1,226.31,329.78Zm-17.39,16.29a2.45,2.45,0,0,0,3.46-.74l-.06.17c1.23-.24.78-2.08,2.22-2.42a3.42,3.42,0,0,0,.06,1.84l.24-.69c.3.56.54-.12.91-.44l.2.81c-.35.06-.93.53-.8.63.06-.17-1.34,0-1.64.64.39.3,1.19-.77,1.33.22.14-.61.53-.31.79-.81-.13.6.38.56.36,1.09l.51-.75c.13.1-.66,1.17.28,1.09.07-.44,1-.88.62-1.27l.13.1c.55-.39-.32-.73.47-1.1a.35.35,0,0,0-.59,0c-.09.26.14.55-.17,1-.46-.13.47-.4-.27-.64-.37-.13-.75,1.16-1,.34l.56-.39c-.36-.39,0-.7-.31-1,.15-.42.84-.27.82-.89-.12-.37-.78-.6-.1-.89.93.17,1.95-1,2.29-1.55l.14-.61c-.26-.2-.68.73-.74.2l.49-.66.1.19c.22-.16.26-.51.35-.77.09.45-.43.76,0,1.06.35-.19.53-.08.7-.41,0,.09,0,.17,0,.22.72-.38.1-1,.11-1.23,0-1-1,.08-1.35-.39l1.39-1.81c0,.26,0,.53.18.64.58-.21.31.29.85-.28-.57-.49.36-1,.45-1.72.4,0,.48.05.09.45.39.3.79-.36,1-.52,0-.2.17-.44.21-.63-.33,0-.48-.3-.28-.79l-.05-.09c-.66.46-1.92,1-1.93,1.67l-.07-.27c-.95.35-.81,2-1.76,1.69-.23-.29-.19.07-.55-.32l-.19.77-.07-.26-.74.9,0-.1c-.05.73-.08,1.31-.1,1.78.16.17.23.19.22.44a.57.57,0,0,1-.24.39h0c-.25.15-.62.05-1,.2l.72-.8a.89.89,0,0,0-1.13-.38c.14-.17,0-.44-.23-.29,0,.09-.32.68.08.71-.63.83-2.53,1.27-3.11,2.89.48-1.1-1,.26-.23-.73-1.06.17-.1,1-.79,1.51-.21-.1.36-.31.19-.77-1.22.86-1,2.46-2.18,3.33l-.39-.31Zm-1.56,2.41-.47.71.06-.05-.3.86c.49-.22,1.1-.08.78.6-.1-.19-.42-.22-.33-.47-.54.12-1.48.65-.77,1,.16-1.13.82.52,1-.35.06.61-.36.72-.46,1.13,0-.55-.71-.58-1.24-.32-.09.26-.65.65-.8,1.07.42.22.35.65.9.26a1.11,1.11,0,0,1-.75.73c.06-.17.23-.42.1-.52-.48-.1-.7.14-.95.13l-.25.35a.39.39,0,0,1,.18,0l-.05.61c.3-.59.35-.05.53.14-.36-.39-.33.23-.47.4l.72.07c0,.35-.84.27-.37.58a4.5,4.5,0,0,0,1.57-1.62l-.56-.05c.5-.93,1,.09,1.75-.72.05-.61,1.18-1.22.64-1.79.07.27,1,0,1-.53-.2-.81.64-1.79.13-1.75-.25.24-.3.86-.83.72l.37-.58-.59,0C208.13,349.08,207.84,348.82,207.36,348.48ZM193.48,356h0l0,0Z"/><path class="cls-2" d="M239.57,315.85c0-.26.38-.58,0-.79C239.91,315.36,239,315.71,239.57,315.85Z"/><path class="cls-2" d="M240.27,315.74c0-.09-.18-.19,0-.35l-.35.49Z"/><path class="cls-2" d="M242.75,317.38a1.11,1.11,0,0,1,.37-1c.86.61-.35.76.18,1.6.69-.55.24-1.38.7-2C243.43,316,242.22,316.8,242.75,317.38Z"/><polygon class="cls-2" points="243.4 318.59 243.59 318.08 243.51 318.07 243.32 318.58 243.4 318.59"/><path class="cls-2" d="M229.5,319.67c-.26-.2-.25.25-.31.42C229.3,320,229.49,319.94,229.5,319.67Z"/><path class="cls-2" d="M160.89,387.35l-2.43,2.86C159.16,389.39,159.84,388.66,160.89,387.35Z"/><path class="cls-2" d="M222.19,329.93c.5-.93.42-1.64,1-2.46-1.41.48-.54,2-1.81,2.3Z"/><path class="cls-2" d="M220.61,327.84c.55.32,0,1.05.38,1.27.37-.58-.19-.64.29-1Z"/><polygon class="cls-2" points="230.97 331.81 230.98 332.25 231.07 331.99 230.97 331.81"/><polygon class="cls-2" points="217.75 331.45 217.73 331.27 217.24 331.49 217.75 331.45"/><path class="cls-2" d="M217.71,331.1l0,.18Z"/><polygon class="cls-2" points="231.62 333.01 232.03 332.79 231.99 332.43 231.62 333.01"/><path class="cls-2" d="M226.47,333.5l.15-.42C226.59,333.16,226,333.37,226.47,333.5Z"/><polygon class="cls-2" points="215.38 333.44 215.2 333.95 215.28 333.96 215.46 333.44 215.38 333.44"/><path class="cls-2" d="M225.41,336.93c.53.14-.48.66.22.55C225.94,337.07,225.62,337,225.41,336.93Z"/><path class="cls-2" d="M218.94,338.86a.38.38,0,0,0-.09.19A1.07,1.07,0,0,0,218.94,338.86Z"/><path class="cls-2" d="M218.94,338.86c.16-.15.44-.18.44-.38C219,338.52,219,338.65,218.94,338.86Z"/><path class="cls-2" d="M217.28,340.67l.16-.11c0,.3.06.21.06-.05s0-.25,0-.34l0-.22v.24C217.2,340.41,217.08,340.57,217.28,340.67Z"/><path class="cls-2" d="M205.21,341.48c.64-.38.83-.45,1.06-.16.56-.4,0-.77.23-1.17C206,340.75,205.77,340.74,205.21,341.48Z"/><path class="cls-2" d="M206.5,340.15l.17-.21A.78.78,0,0,0,206.5,340.15Z"/><polygon class="cls-2" points="222.13 341.48 222.21 342.19 222.27 342.02 222.13 341.48"/><path class="cls-2" d="M204.33,342.1c.11-.07.25-.24.41-.22C204.51,341.59,204.22,342.18,204.33,342.1Z"/><path class="cls-2" d="M211.34,345.23c.21.11.44-.31.63-.38C211.75,345,211.12,344.68,211.34,345.23Z"/><path class="cls-2" d="M203.92,344.63a.45.45,0,0,1,.58.23C204.52,344.59,204.25,344,203.92,344.63Z"/><polygon class="cls-2" points="210.36 346.11 210.52 346.12 210.7 345.61 210.36 346.11"/><path class="cls-2" d="M215.4,348.7c.09-.7-1.36-.13-.94-1.06-1.2.54.5.37-.19,1A1,1,0,0,1,215.4,348.7Z"/><path class="cls-2" d="M214.27,348.6a.58.58,0,0,0-.21.15Z"/><path class="cls-2" d="M206.8,352.13a1.12,1.12,0,0,0,0-.24A.88.88,0,0,0,206.8,352.13Z"/><path class="cls-2" d="M212.46,350.89l.13-1.05c-.08.7-1.09,1.67-.57,2.07a1.25,1.25,0,0,0,.64-1.09Z"/><path class="cls-2" d="M197.39,349.22l.07-.44-.37.26C197.25,349,197.42,349.53,197.39,349.22Z"/><path class="cls-2" d="M197,349.1l.07-.06A.13.13,0,0,0,197,349.1Z"/><path class="cls-2" d="M207.69,350.8a1.13,1.13,0,0,0,.45-.58C208,350.21,207.43,350.6,207.69,350.8Z"/><polygon class="cls-2" points="196.27 351.67 196.61 351.17 196.19 351.66 196.27 351.67"/><polygon class="cls-2" points="193.53 352.83 193.37 352.81 193.19 353.32 193.35 353.34 193.53 352.83"/><path class="cls-2" d="M205.12,359.38c.34-.24.15-.87,0-.89l-.53.57c.5.23.14-.16.55-.39Z"/><path class="cls-2" d="M179.68,367.94c-.12-.37.62-.83.88-.63,0,.18-.21.6.14.55l-.11-1.07c1-.26.29,1.26.19,1.78.72-.57.52-1.15,1.21-1.83a1.22,1.22,0,0,1-.76.11c-.44-.4.38-.85.81-1.34-.47.11-.46-.21-.41-.59a.18.18,0,0,0,0-.14v-.13l0,.05a.53.53,0,0,0-.23-.13c-.26.5-.91.44-1.16.68.92.44-.68,1-.79,1.52l-.29.42-.13.14c-.1-.05-.16-.18-.09-.52,0,.3-.65.82-.38,1l-1.29,1.3a.59.59,0,0,1-.23,0,.17.17,0,0,0,.07.16l-5.63,5.68c.33-.23.73-.31,1.09-.52,0,.88.56-.39.86.16a.85.85,0,0,1-.65.65c.15.28.58.23.81.51,1-.43.07-1.58.93-2.11.23.28.23.72.66.23l-.06.18c.44-1,1.15,0,.9-1.16l.36.39a4.06,4.06,0,0,1,1-1.67l0,.1c.6-1.45.49-.67,1.46-2l-.1,1c.58-.22.2-.78.53-1,.05.09.39.3.19.63l.73-2.05C180.28,367.64,179.89,368,179.68,367.94Z"/><path class="cls-2" d="M182,366.74a.76.76,0,0,0,.27-.24Z"/><path class="cls-2" d="M171.07,375.33l.39-.39A1.45,1.45,0,0,0,171.07,375.33Z"/><path class="cls-2" d="M183.18,363.94c-.43.05-.09-.45-.19-.63l-.86.86c.15.14.22.39.37.5Z"/><path class="cls-2" d="M181.61,364.15a.89.89,0,0,1,0,.5l.47-.48C182,364.07,181.87,364,181.61,364.15Z"/><polygon class="cls-2" points="189.34 371.75 189.2 371.91 189.08 372.26 189.34 371.75"/><path class="cls-2" d="M186.32,373.49c.4,0,.58-.47.64-.64C186.57,373.25,186.66,373,186.32,373.49Z"/><polygon class="cls-2" points="189.14 375.35 188.88 375.85 188.95 375.86 189.14 375.35"/><path class="cls-2" d="M169.59,379.73l-.17.21A.92.92,0,0,0,169.59,379.73Z"/><path class="cls-2" d="M172.54,376.09c-1.34.49.25-.95-.57-1.2l-.32.67-.1-.18L171,376c.37.12.48.05.71.33-.91.71-.56-.05-1.48.22l-.87.95v-.15a.23.23,0,0,0-.06.21l-2.9,3.21c-.36.77.77.16.73.95.65-.64,1.89-1.32,1.43-1.89.05.09.15.28.34.21l0-.8-.49.22c-.05-.8,1.26-1.91,1.74-1.87-.54.84.31,1-.93,1.68.17.09.58.14.44.43C170.56,378.46,171.81,377.69,172.54,376.09Z"/><path class="cls-2" d="M161.47,387.58l0-.06C161.44,387.57,161.45,387.59,161.47,387.58Z"/><path class="cls-2" d="M161.91,387.27l.05-1.06-.82.9.29.41c0-.16.11-.64.36-.62Z"/><path class="cls-2" d="M162.29,385.27a.6.6,0,0,0,.58.94c-.21.6-.66-.24-.5.48.31.3.63-.38.69-.55Z"/><polygon class="cls-2" points="165.78 382.25 165.82 382.55 166.18 382.29 165.78 382.25"/><path class="cls-2" d="M165.83,382.54l-.36.26a1.53,1.53,0,0,0,.44.25Z"/><path class="cls-2" d="M164.56,383.47a4.48,4.48,0,0,0-.52.38Z"/><path class="cls-2" d="M165,383.23l-.07,0-.38.28C164.71,383.38,164.86,383.31,165,383.23Z"/><path class="cls-2" d="M165.47,382.8c-.34-.24-.7-.49-1.06,0l.53.36Z"/><polygon class="cls-2" points="185.9 377.69 185.71 378.2 185.79 378.21 185.98 377.7 185.9 377.69"/><path class="cls-2" d="M183.62,379.42a1.64,1.64,0,0,0-.05.37A.54.54,0,0,0,183.62,379.42Z"/><path class="cls-2" d="M184.12,382.9c-.71.12.17-.95-.71-.33a.68.68,0,0,1,.15-1.13c.23.29-.18.51.3.56-.06-.54.23-.42-.24-.73.16-.64-.07-1-.05-1.48-.31.65-1.72,1.25-1.84,2.36.13.81,1,1.24,1.64,1.92C183.58,384.18,184.53,383.38,184.12,382.9Z"/><path class="cls-2" d="M185.43,382.94a.67.67,0,0,0,.31-.41C185.48,382.33,185.57,382.78,185.43,382.94Z"/><path class="cls-2" d="M176,382.17c.06.14-.17.6.07.69l.4-.64C176.35,382.33,176.19,382.25,176,382.17Z"/><path class="cls-2" d="M176.67,381.94l-.18.28A.58.58,0,0,0,176.67,381.94Z"/><path class="cls-2" d="M175.93,382.14l.09,0A.08.08,0,0,0,175.93,382.14Z"/><path class="cls-2" d="M163.13,384.56c-.18-.19-.3.15-.36.32C162.88,384.8,163.07,384.73,163.13,384.56Z"/><path class="cls-2" d="M155.13,394l-.35.06A.41.41,0,0,0,155.13,394Z"/><path class="cls-2" d="M157,402.16a.21.21,0,0,1,.05.13A.24.24,0,0,0,157,402.16Z"/><path class="cls-2" d="M157.06,402.29c0,.29-.65.48-.58.87l0-.09-.15.43C156.53,403.21,157.13,402.67,157.06,402.29Z"/><line class="cls-2" x1="380.49" y1="251.24" x2="473.26" y2="159.09"/><path class="cls-2" d="M469.21,159.59c.17-.25.58-.21.6,0,.16-.7.47-.4,0-1,0-.53.67-.47.56,0l.48-1.1-.55.39c-.3-.56.88-.63.53-1.28l-.81.9-.1-.19a1.18,1.18,0,0,1-.68.73c-.05-.09-.18-.19,0-.35-1.07,1,.47,1-.25,2A.57.57,0,0,1,469.21,159.59Z"/><path class="cls-2" d="M467.29,159.41l.17.89-.74.47c.18.19-.11.78.35.65a.71.71,0,0,1,.2-.34c.33.47-.61,1,0,1.23.37-.58.53-.56.5-1.18a2.71,2.71,0,0,1,1.24-.68c.07-.19-.16-.46,0-.67l-.1.13-.62-.59c0,.26-.2.33-.34.5v-1.41c-.79-.34-1.16.68-1.67.72C467.08,159.3,466.2,159.66,467.29,159.41Z"/><path class="cls-2" d="M469,159.78v0Z"/><path class="cls-2" d="M419.51,215.89a.37.37,0,0,0,0,.44l1.69-1.7c-.21-.1-.9.19-.66-.23-.32,0-.62.56-.47.83l-.12-.36c-.08.7-.95.35-.88-.08l0,0,.11,2.27C419.61,216.77,419,216.38,419.51,215.89Z"/><path class="cls-2" d="M384.07,249.88c.16-.27.13-.35.05-.39A1,1,0,0,0,384.07,249.88Z"/><path class="cls-2" d="M419.17,217.63l0,.71A1.87,1.87,0,0,0,419.17,217.63Z"/><path class="cls-2" d="M415.87,209.6a.22.22,0,0,0-.07-.06l0,.35h0C415.86,209.78,415.86,209.69,415.87,209.6Z"/><path class="cls-2" d="M412.87,226.68l-.08.13Z"/><path class="cls-2" d="M418.34,202.9l-.4,1.11c-.06-.27-.38.14-.42-.21,0,.08-.23.41-.07.43l.14-.17c.1.9.53.85.25,1.88.7-.11.61-.56.6-1a2.09,2.09,0,0,1,.13-.26l-.06-1.32Z"/><path class="cls-2" d="M391.78,236.63l0,0A.05.05,0,0,0,391.78,236.63Z"/><path class="cls-2" d="M391.62,236.39l.13.19C391.71,236.46,391.79,236.23,391.62,236.39Z"/><path class="cls-2" d="M419,217.18a1.11,1.11,0,0,1,.19.45l0-.54Z"/><path class="cls-2" d="M418.48,215.52l.56-.7,0-.49A11.8,11.8,0,0,0,418.48,215.52Z"/><path class="cls-2" d="M414.16,226c-1.24,1.38-.25-.9-1-.44-.29.43-.15.83-.29,1.15.81-1.28.77,1,1.67-.14.35.65-.21,1.3-.71,1.52-.88-.08,0-.71-.37-1.27-.35.5-.19.51-.1,1-.77.54-.78,1.95-1.84,1.68-.38.58-.11.78-.14,1.31.46.57,1-.44,1.57-.21-.08,0-.24,0-.29-.11l.52-.31c-.57.21-.46-.57-.29-.82s.43-.49.53-.3l-.12.34c.46-.13.28-1,.87-1.06.14.09.07.27.12.36,0-.71.37-1,.64-1.79l.21.81c-.15-1,1-1.76,1.91-2.11-.15,0-.35.05-.37-.13.27-.5.91-.44,1,0-.05-.8,1.79-1.07,1.75-2.13l-.23-4.95a1,1,0,0,1-.14.42c-.66-.24-.72-.07-.77-.87-.13.61.37.83-.16,1.4,0-.45-.47-1-1.05-.54-.88,1.77-.49,3.92-1.08,5.81-.39-.31-1.27.76-1.82,1.15a1.59,1.59,0,0,1,.34-1.45c-.25.21-.65.59-1,.86Z"/><path class="cls-2" d="M416.09,221.74a.43.43,0,0,0-.17,0A.24.24,0,0,0,416.09,221.74Z"/><path class="cls-2" d="M414.64,224.16l0,0-.09.14Z"/><path class="cls-2" d="M417.89,216.71c0-.18,0-.27,0-.44,0,.08-.05.16-.08.25S417.81,216.7,417.89,216.71Z"/><path class="cls-2" d="M418.76,217.05l.1.19.12-.06C418.91,217.09,418.84,217,418.76,217.05Z"/><path class="cls-2" d="M406,227.83l0,.2A.19.19,0,0,0,406,227.83Z"/><path class="cls-2" d="M412.11,226.84c.43-.49-.46-.57.19-1.22l-.22.16c.24-.69,1.16-1.39,1.69-2,.15.27.59-.08.84.3a1.79,1.79,0,0,0,.47-1.41c.34-.13.41-.77.84-.93-.32-.07-.23-1.08-.71-.12,0-.09,0-.09,0-.18-.74.19-.47.84-.86,1.24-.43.05.08-.7-.22-.55-.32.68-1.8,1.34-1.05,2a.63.63,0,0,1-.77.28c.19,1.34-2.46,1.8-1.48,2.78a2.7,2.7,0,0,0,.63-1.09Z"/><path class="cls-2" d="M417.17,217.52l-.1.08Z"/><path class="cls-2" d="M425.77,214.62l.44.84a22,22,0,0,1-2.44,2.41c-.16,0-.1-.18-.07-.27-.59.74-1.73,1.6-1.92,2.38-.22.21-1,.56-1,.16a.78.78,0,0,1-.25.43c-.26-.2.2-.33,0-.53-.11.08-.19.08-.14.17,0-.36-.94-.62-.18-1.34.82.25-.46.57.3,1,.25-.24,0-.44-.06-.54.33-.29.47-.14.59,0-.06-.3.59-.43.47-.88.57-.65.41.48.81.08l-.37-.83.77-.55c.75-1.16-1.17-.9-.41-2.33.17.46,1.13.55,1.77.17-.29.32-.46,1.28-1,1.49,1-.08-.71.81.11,1.07a1.54,1.54,0,0,1,.94-1.24l-.06.18c.44-.32.11-1.23.87-1.51.24-.28.36-.06.45.12C425.55,214.8,425.63,214.49,425.77,214.62Zm-.45.69-.4.29C425.1,215.62,425.22,215.48,425.32,215.31Z"/><path class="cls-2" d="M462.5,164.32l.15,0A.23.23,0,0,0,462.5,164.32Z"/><path class="cls-2" d="M431.36,194.79l.22-.18A1.06,1.06,0,0,0,431.36,194.79Z"/><path class="cls-2" d="M433.92,188.31l.15-.43A.66.66,0,0,0,433.92,188.31Z"/><path class="cls-2" d="M460.05,166.67h0s0,0,0,.07Z"/><path class="cls-2" d="M444.39,180.7a1.05,1.05,0,0,0,.3,0Q444.59,180.6,444.39,180.7Z"/><polygon class="cls-2" points="433.89 188.39 433.92 188.38 433.92 188.31 433.89 188.39"/><path class="cls-2" d="M427.63,195c0,.06-.05.12-.08.19A.43.43,0,0,0,427.63,195Z"/><path class="cls-2" d="M429.6,196.44a.47.47,0,0,0-.06.19Z"/><path class="cls-2" d="M421.47,202.2l-.19.36A.79.79,0,0,0,421.47,202.2Z"/><path class="cls-2" d="M428.49,196.76c0,.05,0,.09,0,.13A.1.1,0,0,0,428.49,196.76Z"/><polygon class="cls-2" points="466 164.4 465.99 164.42 466.05 164.5 466 164.4"/><path class="cls-2" d="M465.79,162.87l.19-.29A.73.73,0,0,0,465.79,162.87Z"/><path class="cls-2" d="M449.3,177.75c.16,0,.43-.05.45.13C449.76,177.62,449.45,177.32,449.3,177.75Z"/><path class="cls-2" d="M468.42,169.48a1.1,1.1,0,0,1-.05-.35C468.35,169.31,468.34,169.47,468.42,169.48Z"/><path class="cls-2" d="M468.37,169.13c0-.1,0-.2,0-.29A1.38,1.38,0,0,0,468.37,169.13Z"/><path class="cls-2" d="M452.43,184.56a.17.17,0,0,0-.17,0C452.35,184.62,452.4,184.61,452.43,184.56Z"/><path class="cls-2" d="M466.27,162.49c-.1-.19.63-1.53-.31-.74-.42-.48.35-.76.47-1.1-.27.06-.2-.37-.41-.48-.06.17-.07.43-.29.59-.29-.11-.14-.54.16-.69-.51,0,0-.7-.57-.49a4.43,4.43,0,0,0-1.07,3c.38-.58.78-1.25,1.36-1.46l.21.55c-.78.11-.8.63-1.28,1l1.19-.77c.78-.14.55.24.25.67C466.08,162.5,466.18,162.44,466.27,162.49Z"/><path class="cls-2" d="M469,166.53h0s0-.06,0-.08Z"/><path class="cls-2" d="M429.28,210l.06.23C429.34,210.06,429.32,210,429.28,210Z"/><path class="cls-2" d="M466.53,165.25Z"/><path class="cls-2" d="M431.41,207.9l0,0S431.41,207.92,431.41,207.9Z"/><path class="cls-2" d="M423.7,199a.15.15,0,0,0-.07,0C423.61,199.05,423.65,199.05,423.7,199Z"/><path class="cls-2" d="M431.37,207.87l0,0S431.39,207.87,431.37,207.87Z"/><path class="cls-2" d="M440.18,196.3a.85.85,0,0,0-.21-.05C440,196.31,440.05,196.33,440.18,196.3Z"/><path class="cls-2" d="M437.6,197.73h0Z"/><path class="cls-2" d="M447.09,176.48a1.08,1.08,0,0,0-.21.26A.62.62,0,0,0,447.09,176.48Z"/><path class="cls-2" d="M431.43,208a.71.71,0,0,1,0,.23A.63.63,0,0,0,431.43,208Z"/><path class="cls-2" d="M441.32,191.29l0,.11.06,0Z"/><path class="cls-2" d="M442.66,190.53a1,1,0,0,0,0,.2c.22-.53,1.08-1,.76-1.53-.12.13-1,.55-1.15.2-.16.36-.83.46-.9.66.65-.2.39.3.23.73-.38.14-.27-.38-.58-.23l-.56.65.58-.47.23.55,0-.09C442.06,190.12,442,191.71,442.66,190.53Z"/><path class="cls-2" d="M442.71,190.73a.51.51,0,0,0,0,.24A.22.22,0,0,0,442.71,190.73Z"/><path class="cls-2" d="M447,187.73a1.65,1.65,0,0,0,.09-.22Z"/><path class="cls-2" d="M419.54,214c.13.1.89-.18.58-.48l-.57.38Z"/><path class="cls-2" d="M455.3,176a.9.9,0,0,0-.18.16s0,.06,0,.08S455.27,176.1,455.3,176Z"/><path class="cls-2" d="M442.34,189.09a.49.49,0,0,0,0,.31A.41.41,0,0,0,442.34,189.09Z"/><path class="cls-2" d="M456.05,176.71a1.11,1.11,0,0,1,.54.13c.15-.15.1-.41.2-.62A1.24,1.24,0,0,1,456.05,176.71Z"/><path class="cls-2" d="M456.79,176.2v0Z"/><path class="cls-2" d="M419.1,214.13c0,.07-.05.14-.08.2v-.15l-.45.27a.7.7,0,0,1-.1.19.22.22,0,0,0,0-.13l-.15.08a14.55,14.55,0,0,1-.49,1.93,2.36,2.36,0,0,1-.63,1c.2-.19.39-.51.14-.6-.57.21-1.28-.12-1.52,1l.4-.4-.23,1.56c-.59,0,.11-.78,0-1.14-.37,1-1.83.71-1.58,1.61-.39-.3-1-.8-1.46-.31.72.07,0,.53.67.68,0,.36-.64.38-.41.67l-.1-.19c-1.32.23-.72,1.34-.78,2-.79,1.07-1.45,1.27-2.15,2.09-.26-.2-1.11-.63-1.39-.3.17.45-.37,1.28-.05,1.75.72-.37.12-.78.35-1.2.69.15.44.39,1.07.28-.47.13-1.15,1.57-1.87,1.5l.06-.17c-.76.28-1.85-.62-2.13.86l-.17.66c0-.06-.07-.11-.09-.16-.73.64-1,0-1.39,1.11,0-.09-.05-.1,0-.18-.65.2-.64,1.09-.87,1.5-.53-.13-.28-.37-.4-.74a4,4,0,0,0-1.19,2.89l-.69.29c.15-.43.16-1.13-.13-1.25-.2.33,0,.44-.44.75a4,4,0,0,1-.28-1.08c-1.14.42.58.94-.62.82-.25.24-.08.7.15,1l-.79.1c.28.38-.25.95-.56,1.36.09.18.64.06.65-.21.23.29,0,.79-.29,1-.78-.61-1.52,1.71-2,.6a42,42,0,0,0-2.82,4c-.44.05-.94.53-1-.09-.89.89-.65,2.05-1.73,2.75-.16,0,.4-.41.14-.61-.31.86-1.35.76-2.07,1.84a.36.36,0,0,0,0-.44c.13.1-.13.6-.25.94-.19.07.09-.25-.07-.27-2.07,1.39-2.46,3.65-4.23,5.34a1,1,0,0,0,.06-1.32l-.5.47c.05.42-.32.78-.45,1.25-.13-.05-.37,0-.32-.25-1.42.49-.67,2.32-2.07,3.25l.5-2.34-.67,0,.2-1c-.62.12-.36,1-.75.72,0-.18.2-.33,0-.53-.49.22-.27.51-.47.84,0-1.41,1.41-2.78,2-3.69.07-.17.07.27.12.36.29-.33.69-.29.95-.79-.06-.54-.4,0-.62.12-.23-.29-.12-.37.05-.62.39.3,1.28-1,2-.87,1-1.23-1.07-.72.18-1.66l.72.07a6.09,6.09,0,0,1,1.7-2.67l-.14.17c.07.27.34.21.5.22.71-.37.73-1.34,1.45-1.27a13.87,13.87,0,0,1,1.43-3.31c.71.33-.49,1.36-.46,2l.65-.64c-.4.4-.36.76-.3,1.3.66-.47.39-1.11.8-1.78.1.18.26.2.51-.05l-.27-.41s.08,0,.18,0l.75-1.17c-.35.06-.66-.24-.91,0,.29.11.12.36-.14.6,0-.44-.43.05-.61-.14a8,8,0,0,0,1.3-1.56l.42.22c.56-.39.88-1.07,1.29-1.29l.07.27c.67-.47,1-1.23,1.83-1.42a25.42,25.42,0,0,0,.52-2.6c-.19-.63,2-1,2-2.1.09,0-.08.7-.12,1,.44-.31.23-1.12.78-.81-1,.7.4.31.13.81a2.69,2.69,0,0,0,.78-1.25c-.64.64-.37-.83-.83,0a3.21,3.21,0,0,1,1.43-2.16c.18.19.34.21.65.06l-.09-.45c.33-.23-.23.86.43.4.13-1,2-1.49,1.43-2.61.78-.1-.51,1.19.58.94-.08.7-1,.88-.68,1.44.26-.51.5.22.75,0l.17-.69-.11.08c.31-1.12,1.64-2.06,2.49-3,.35-1.21.26-2.36,1.24-3.24,0,.53,1-.52.89.52.65-.2.81-.89.63-1.08-.44.31-.19.07-.6.29a1.15,1.15,0,0,1,.85-1c-.11.07,0,.08,0,.17.6-.29,0-.44.22-.86.42.22.81-.63,1.27-.76l0-.89c.06.54.53-.3.87-.09.1-.52,0-1.15.54-1.54,0,.35.66-.2,1,.09,1.09-.51.52-2.15,1.72-2.48,0,.09.09.44.38.3.1-.26.44-.53.6-.75h0v0c.08-.11.1-.2,0-.28a4.16,4.16,0,0,1,.28-2c-.39-.29-.79.37-.92.72l.14.54c-.71-.33-.48.66-.8.63-.23-1,1-1.94,1.31-3a3.52,3.52,0,0,0-2.54,1.53l.54-.13-.39.41.75,0a12.83,12.83,0,0,0-1,1c.4-.41,1-.08.73.07-.79.1-.25.68-.61,1,.22-.16.47-.4.51,0-1.08.25-1,.7-2.05.86.65.51-.71.82-.33,1.38l.34-.23-.26.95c-1,.08,0-1-1.16-.46-.84.71-.22,1.3-.78,2a2,2,0,0,1,.56-1.8l-.47.14c0-.36.69-1,1.05-1.32-.17,1,.39-.14.95-.09-.28-.37-.59,0-.43-.65a3.74,3.74,0,0,1-1.06.87c1.25-1-.15-2.13,1.09-2.81-.3.59.63.32.84.43a7.66,7.66,0,0,0,.61-1l-.64-.32c.36-.77,1.56.05,1.72-1.08-.2-.37-.67.47-.61.3.59-1.18,1.67-.73,2.82-1.15a1.65,1.65,0,0,1-.39-1c.2.37.55.32.45.84.38-.14.48-.66.6-1-.71.37-.18-.64-.25-.91.33-.23.2.37.1.63.31-.15,1,0,.7-.55.31.29.15,1.42-.19,1.92l.33-.24c0,.35-.12.35-.45.58a.85.85,0,0,1,.89.52c-.08,0-.05-.09-.13-.1-.3.15-.39.41-.18.52.2.6.56-.06.92,0l.27-.43-.12-2.47c.35-.66.89-.57,1.47-.75l-.25-.45c.48-.4,1-.7,1.16,0-.13-.1-.16,0-.28.06a.3.3,0,0,1,.05.17l0,.08c.36-.58.58-.94.59-1-.3,1.3.59.67,1.07,1.42l.6-1c-.68.29-.31-.29-.21-.55.39.3.64-.65,1-.88l.05.09a2.48,2.48,0,0,0,1-1,9.31,9.31,0,0,1-.41-1.63c-.69.42-.5,0-.76-.22.08,0,.19-.13.16-.19s-.24,0-.37-.12c-.44.75-1,1.41-.77,2.13.41,0,.11-.52.46-.57,0,.61-.42.93-.92,1.41l-.45-.13-.34.65c0-.36-.38-.54.09-1.12-.34-.2-.46.58-.87.81l.22.55c-.15-.28-.87.36-.68-.42l.48-1.1-.49,0,.6-.74,0,.36c.81-1.33,1.08.45,1.71-1.08-.13-.8.19-1.21,1-1.76-.37.59.28.38.37.83.68-.29.46-.84.54-1.27.37.12.66.24.18.63.46.58.49-.66,1.06-.16,1.43-1.46-.55-2.88,1.8-3.89l.15.28c.81-1.34,1.68-1.7,2.51-2.85l1.33-.23c-.09.25-.16,1.13.32,1.17-.93-.17-1.14.43-1.85.54.1.18.37.12.54.14-.26.24-.63.11-.86.53.13.1.62-.12.42.22l-.78.1c-.44.75.51,1.11-.34,1.64a2.08,2.08,0,0,1-.14-1.47c-.39.25.24-.61-.23-.5,0,.91-.59.77-.92,1.66,0-.13-.06-.24.06-.42l-1.08.69c.48.05-.44,1,0,1.33,1.1-.78.59-.74,1.89-1.59a2.54,2.54,0,0,0,0,1.73.13.13,0,0,0-.09,0c.22.55.49.48,1.16,1.16,0-1,.74-.9,1-1.75-.26-.48-.8-.14-1,.24l.27-.75.07.27,1.42-1.17c-.23.27-.1.56-.06.85a1.8,1.8,0,0,1,.73-.28c-.39-.32-.62-.59-.45-.75a3,3,0,0,1,2.41-.79l.07-.12c-.5-.22-.05-1.24-.16-1.87.36.39.65-.2,1.09-.25a2.31,2.31,0,0,0-1.7-1c-.18,1,.07.71.36,1.53l-.54,1.27-.14-.54c-.6.3-.58,1.18-1,.7-.06-.53.51-.74.46-1.28l-.47.14c.1-1,.69.15,1-.79-.61-.15,0-.08.05-.61-.48-.05-1,1.23-1.46.39.05-.61,1.86-.35,1.67-1.43l.05.09a1.68,1.68,0,0,0,.61-1.63c.48-.06.57-.73.84-1l.18.19.35-.5c.14.54-.51.48-.82.89l.39.31c-.83,0-.48.9-.51,1.53.17-.77,1.42-1.24.85-2l.65.06v-.27c.48.05.67.69.32,1.18-.16,0-.24,0-.29-.11a1.29,1.29,0,0,1-.5,1.19l.07-.44a2,2,0,0,0-.88,1.77,18.59,18.59,0,0,0,2.64-2.31,20.18,20.18,0,0,0-1.31-2.59,3.66,3.66,0,0,1,1.77-1.69l.1.19a1.12,1.12,0,0,0,.56-.66c.43,0,.22.55.49.49l.53-1c.28.38-.37,1-.65,1.35,0-.08.09-.25,0-.26-.49.22-.6,1.44-1.23,1.12-.09.25,0-.71-.61-.15-.58.22-.28.77-.17,1s.87-.36.88.08c.28-.33.16-.69.73-.9-.28.32-.31,1.12-.76,1-.26.94.7,1.74,1,1.5-.34-.21.76-1.43-.38-1,0-.71.64-1.36.89-2l0,.1.48-.67c0,.18-.07.44.11.63l.3-1.29c-.11.78.51,0,.86-.1-.2-.37-.1-.89-.56-.76s0,.35-.32.68l0-.88h.08l-.11-.62c.62-.56.6,1.11,1,0l-.6-.41c.95-.79,2.63-1.34,3-2.18a1.32,1.32,0,0,0,1,1,4.93,4.93,0,0,0-1.2,1.15c-.16,0-.12-1.07.41-1.37-1-.63-.55,1.53-1.43.74-1.35.76,0,1.59-1.38,2,.36.39-.07.44.21.82.87.34,1.18-1.22,2-1.58a.52.52,0,0,0,0,.35,1.46,1.46,0,0,0,.77-1h-.08c.14-.87.59,0,1.05-.16.06-.17.59-.48.25-.69l.89-.18-.44-.39c.28-.33.62-.12.65-.65l-.36-.38-.89.62c.26-.5-.25-.46.1-1-.07.88.54-.13.93.17l.1-.52,0,.18c.43-.05.15-.42.48-.66-.54.13-1,.08-1.18.77a5.09,5.09,0,0,1,.63-1.52c.17-.49.68-.43,1-.69-.44.73,1.33.93-.12,1.83-.05-.09.07-.17.15-.17-.63-.32-.68.73-.75,1.17.34.21.14.54.74.25-.32,0-.23-1,.43-1.2l.5.67.7-.56,0,.09c.61.14.59-.74,1.25-.94.1-.52,1.46-1.54.34-1.65.75,0,.62-.82,1-1.32l-.77.28c.21-1,.3-.59.13-1.75.21.11.45.13.52.4.87-.8,2.23-1.82,2.24-2.79.61-.56,1.39,0,1.95-1.05.09-.25-.68-.41,0-.79.08,0-.09,1,.47.31,0-.88,1.27-.76,1.45-1.72.46-.13.91-.71,1.16-.24-.55.39-1.15,1.13-1.08,1.4-.15-.28-.54.12-.36-.39-1,.44-.24.68-1.07,1.14.1.18.73.06.74-.2.49.49-1,1.49.12,1.51.73-.64-.08-1.86,1-1.93.06.53-.56.65-.35,1.46l.68-.28v-.71l.05.09c1.31-.4.3-1.29.83-2.3-.79.1-.74-.95-1.29-.83.46-.57.9-.88,1.39-.4-.57,1.36.46.57.05,1.95.32,0,.5.92,1.09.45.25-.94-.59-.23-.15-1,.08,0,.16,0,.21.11,0-.53.41-.23.46-.84l0,.17c.71-.11.11-.78.79-.8-.5-.23-.06-.54-.07-1-.49.22-1.2-.11-1.88.62.2.37.41.48.26.9l.42-.49a3.54,3.54,0,0,0-.08.45l-.59.28c.35-.75-.21-.81-.27-1.34.64-.38.35-.5.76-.72.39.45,1.7-.26,2.56-.58-.11.08-.22.2-.29.26-.17.69.64.06.77.16l.1-.52c0,.08,0,.26.18.19.35-.5-.09-.89.25-1.39.26.2.26.91.64.77.29.11,1.11.37,1.47-.39-.05-.13,0-.33.17-.53,0,0,0,.07,0,.1l.62-.12c.08.71-.82.45-.75,1.17l.35.4a1.51,1.51,0,0,0-.38,1.09c.44-.31.42-.49.76-1,.3.18.18.65.16.72l-.15-.28c-.81.19-.39,1.11-1.09,1.66-.11.08-.08,0-.13-.1-.14.87-1.14.86-1.15,1.83l0-.36c-.18.5-.46,1.52-.76,2.53l.14.15c.16,0-.1.26-.29.33h0c-.15.5-.3,1-.44,1.36a.79.79,0,0,0,.5-.12c-.07-.27.67-.73.2-1,.51,0,.63-.83,1-.88-.62.12-.11-.63-.26-.91.37.13.54-.56.82-.18.16,0-.4,0-.36.31-.09.7,1-.43.79.34.38-.84,1.3-1.55,1.63-2.49l-.49.22c.33-.23.93-1,1.14-.86-.17.24-.42.48-.63.82.36.38.65-.65.91-.45l.16-1.39-.36.32c0-.45,1-.88,1.56-1.36.21.82-.78.81-1.14,1.57-.21.6.74.25.48.75a.49.49,0,0,0,.45-.49l.24-.06c.12.81-.75,1.47-.86,2.37a.66.66,0,0,0-.06-.25,2.26,2.26,0,0,0-1.23,1.12c.35-.06.33-.24.4-.4.13.1-.19.51-.2.77.49-.22.34.21.64.06a1.47,1.47,0,0,1-.67.73c-.32,0-.12-.36-.38-.56-.15.42-.84,0-1,.7.67-.47.35.65.31,1l.11-.08c.09.45-.05.61-.42.49.12-.35.42-.49.08-.7a1.75,1.75,0,0,0-.37.58l0-.35-.71.81a7.86,7.86,0,0,0,.51,1.37c-.4,0-.48.4-.57.66l0-.19c-.54.13-1.12,1.05-1,1.33-.43,0,.35-3.06-1.16-1.17-.64.64.28,1.08.15,1.69a.21.21,0,0,0-.13-.1c-.33.23-.1.52-.23.86.28-.06.53-.3.51-.48.2.37-.62.56-.61,1-.16-.72-.71.37-.72-.07a1.79,1.79,0,0,0-1.07,1.84c-.93-.17-.6.74-1.47,1.1.11-.08.2-.33.39-.41,0-.7-.82.46-.6-.4-.06.17.18.19.24,0s.21-.6,0-.71l-.81.19.09-.26-1.19.34c.05.09.2.1.29.11a24.22,24.22,0,0,0-2.69,2.66c.83,1.14-1.5,2.33-1.53,3.56a1.89,1.89,0,0,0-.82-1.14c.09-.19,0-.87.38-1.1.21.1.79-.11.71.33.77-1-.55-.32-.65-.95-.88,1.07-.88,2.22-1.26,3.06l-.13-.1-.25.68c.45-.31,1,.27.3.56l0-.09c-.51.05-.81.9-1.29,1.3l0,.61c-.47.4-1.09-.18-1.59-.41-.73.64-.63,1.53-.83,2.31-.48,0-1.56.91-1.34.05-.39.84,1.14,2.13-.69,2.4l0-.53c-1,1.06-1.9,3-2.63,3.2-.54-1.29-2.19.32-3.26-.39.25.15-.06.6,0,.76-.19,0-.43,0-.39.35.57-.22.65,1.2,1,.09a2.61,2.61,0,0,1-.65,2.76l-.36-.38.77-.55c-.34-.21,0-.52,0-.79-1.44,1-.71-1-1.92.26.12.37.1.19-.13.61.14-.16-.09-.45-.34-.21l.05.54c-1.05-.19.33-1.13-.48-1.2.19-.77.88-1.77.25-2.09-1,.62.17,1.6-.87,2.21l-.29-.11c-.16.42.12.8.16,1.16a.39.39,0,0,0-.51,0,20.83,20.83,0,0,0-.18,2.36c.82-1.59,1.39-.66,2.3-2.25,0,.35-.81,1.34-.35,1.91l-.36-.39a2.72,2.72,0,0,1-1.06,1.58l.1-.52c-.42.93-1.69.54-1.6,1.7a1.1,1.1,0,0,0,.42-.49,2.81,2.81,0,0,1-1.1,1.22l-.17,1.39c-.17-.19-.68.29-.74-.24-.84.27-.56,1.1-.79,1.51-1,.18.32-.67-.13-1.24a3.84,3.84,0,0,0-1.77,2.39c.24-.09.38-.1.46,0-.14-.1-.43.25-.61.43l.12.36c-.46.13-.56,0-.49-.49-.33.24-.21,1-.85,1,.2-.77,1.07-1.13,1.14-1.57-.78,1.25-1.76.28-2.74,1.86-.13-.1-.14-.54-.39-.3-.48.66.35.65.44,1.1.29-.59.65-.64,1.21-.59l.08.31c-.12-.08-.41.19-.59.17l.33.47a.82.82,0,0,0-1.37.14c.67,0,.56,0,1.16.46,0,1-1,.08-1.07,1.13-.1-.18.27-.76-.25-.46-.36.32,0,.62-.09,1-.11-.63-.45-.84-.61-1.55a3,3,0,0,0,.69-1l-.82.19c.46-.57,0-.8-.14-1-1.26.5-.11,1.22-.77,1.69,0,.53.58-.48.42.22-.59.47.12.36-.32,1.11l-.07-.27c-.4,0-.31.41-.48.66s1.54,1,.61,2a.87.87,0,0,0-.14-.28l-2.17-4a24.68,24.68,0,0,1-3.48,2.88c-.87-.34.3-1.29,0-1.5l.63-.38c.23.29-1,1.14-.08,1.14.72-1.08,1.42-1.19,1.75-2.57-.87-.35-1,1.23-2,1.31a1.55,1.55,0,0,0,.51-.74l-1.93,1.41v.28a6.78,6.78,0,0,1,.86-.56,1.22,1.22,0,0,0-.29,1.73l.11-.07-.06.33Zm-34.53,34.08a.75.75,0,0,0-.07-.23C384.54,248.07,384.6,248.09,384.57,248.21ZM428,202.31c-.78.63-1.61,1.22-2.35,1.84,2.11-.33,3.63-.52,1.57,1.49l-.07.2a3.57,3.57,0,0,0,1.22-1.1,18.23,18.23,0,0,0-.08-3c-.37-.12-.28.33-.59.48Zm2,1c.5-.3.21-.4.1-.64l-.36.49A.24.24,0,0,1,430,203.28Zm-.1-.79a.26.26,0,0,1-.14.07Zm-8,7.53,0-.05-.33.24A.63.63,0,0,0,421.85,210Zm1.24-.38-.22-.42-.31.24A.79.79,0,0,0,423.09,209.64Zm3.68-1.54c-.22-.55.31-1.12-.1-1.6-.08-.15-.24-.08-.4,0l-.51.42a.43.43,0,0,1,.09.28c.22-.11.44-.1.65.24-1-.19,0,.79-.56,1.09C426.11,209,426.75,208.36,426.77,208.1Zm33.61-35.71a3,3,0,0,0,.39.15l-.1.54c-.67.46-1.76.28-1.72,1.33a2.12,2.12,0,0,1-1.16-.18,1.65,1.65,0,0,1,.39-.24C458.81,171.76,459.78,174.1,460.38,172.39Zm-7.31,5.71a.25.25,0,0,0,0-.18,7.57,7.57,0,0,1-2,4c.46.19,1.32-.17,1.75-.33l.11.63-.45-.13-.12.78c.38.13.69-.28,1.12-.33-.05-.1.3-1.3.29-1.74l-.88.36a4.36,4.36,0,0,0,1.24-1.38c-.17-.2-1,.08-.69.55-.34-.21.3-.86-.4-.74.19-.78,1.21-1.3,1.7-1.52l.52.4c.58-.21-.28-.82.45-1-.49.66.6.41.18.9.32,0,.49.49.91,0-.23-1,.86-.1.69-1,.43-.05.1.62.66.23.22-.86,0-1.06-.45-1.54-.63.38,0,1.15-.52,1.45l.07-1.58a.54.54,0,0,0-.45.27,1.08,1.08,0,0,0,.12-.74,3.31,3.31,0,0,1,0-.42c-.48.47-.9.87-1.16.75l-.15-.28c-.37,0-.48.39-.45.67-.4.44-.52,1.16-.89,1l0-.36A11,11,0,0,1,453.07,178.1Zm-17.39,16.29a2.46,2.46,0,0,0,3.46-.74l-.06.16c1.23-.23.78-2.08,2.22-2.41a3.53,3.53,0,0,0,.06,1.84l.24-.69c.3.56.55-.12.91-.44l.21.81c-.35.06-.94.53-.81.63.06-.17-1.34,0-1.64.64.39.3,1.19-.77,1.34.21.13-.6.52-.3.78-.81-.13.61.38.57.36,1.1l.51-.75c.14.1-.66,1.17.28,1.08.07-.43,1-.87.62-1.26l.13.1c.55-.39-.32-.74.47-1.1a.34.34,0,0,0-.59,0c-.09.26.14.54-.17,1-.46-.14.47-.4-.27-.65-.37-.12-.75,1.17-1,.35l.56-.39c-.36-.39,0-.71-.31-1,.15-.43.85-.28.82-.9-.12-.36-.78-.6-.1-.89.94.18,1.95-1.05,2.3-1.55l.13-.6c-.26-.2-.68.73-.73.2l.48-.67.1.19c.22-.15.26-.5.35-.76.09.45-.43.75,0,1.06.35-.19.53-.09.71-.41a.19.19,0,0,0,0,.22c.72-.38.1-1,.11-1.23,0-1.05-1,.08-1.35-.39l1.39-1.81c0,.26,0,.53.19.63.57-.21.31.3.84-.27-.57-.49.37-1,.45-1.72.4,0,.48,0,.09.45.39.3.79-.37,1-.52,0-.2.17-.44.21-.63-.33,0-.48-.3-.28-.79l-.05-.1c-.66.47-1.92,1-1.92,1.68l-.07-.27c-1,.35-.81,2-1.77,1.68-.23-.28-.19.07-.55-.31l-.19.77-.07-.27-.74.9,0-.09c-.06.73-.09,1.31-.11,1.78.16.16.24.19.23.44a.57.57,0,0,1-.25.38h0c-.25.15-.62,0-1,.2l.72-.8a.9.9,0,0,0-1.13-.39c.14-.16,0-.44-.23-.28.05.09-.32.67.08.71-.63.83-2.52,1.27-3.1,2.89.47-1.11-1,.26-.24-.73-1.05.17-.1,1-.79,1.51-.21-.1.36-.32.19-.77-1.21.85-1,2.46-2.18,3.32l-.39-.3Zm-1.56,2.41-.47.7.07,0-.31.85c.49-.22,1.11-.07.78.6-.1-.18-.42-.21-.33-.47-.54.13-1.47.66-.76,1,.15-1.13.81.52.95-.35.07.61-.35.72-.46,1.13,0-.55-.7-.58-1.24-.32-.09.26-.64.64-.8,1.07.42.22.35.65.91.26a1.13,1.13,0,0,1-.76.73c.06-.18.23-.42.1-.52-.48-.11-.7.13-.95.13l-.25.35a.46.46,0,0,1,.19,0l-.06.61c.3-.59.36-.06.54.14-.36-.39-.34.23-.48.39l.72.07c0,.36-.84.28-.37.58a4.31,4.31,0,0,0,1.57-1.61l-.56,0c.5-.93,1,.09,1.75-.72.05-.61,1.18-1.22.64-1.8.07.28,1,0,1-.52-.21-.81.64-1.79.13-1.75-.26.24-.31.85-.84.72l.37-.59-.59,0C434.89,197.39,434.6,197.14,434.12,196.8Zm-13.87,7.53h0l0,0Z"/><path class="cls-2" d="M466.33,164.17c0-.26.38-.58,0-.79C466.68,163.67,465.8,164,466.33,164.17Z"/><path class="cls-2" d="M467,164.06c-.05-.1-.18-.19,0-.36l-.35.5Z"/><path class="cls-2" d="M469.52,165.7a1.08,1.08,0,0,1,.36-1c.86.61-.35.76.18,1.6.69-.55.24-1.39.7-2C470.2,164.27,469,165.12,469.52,165.7Z"/><polygon class="cls-2" points="470.16 166.91 470.35 166.4 470.27 166.39 470.09 166.9 470.16 166.91"/><path class="cls-2" d="M456.26,168c-.26-.2-.25.24-.31.41C456.06,168.32,456.25,168.25,456.26,168Z"/><path class="cls-2" d="M387.65,235.67l-2.43,2.85C385.93,237.71,386.6,237,387.65,235.67Z"/><path class="cls-2" d="M449,178.24c.5-.92.42-1.63,1.05-2.45-1.42.48-.54,2-1.82,2.29Z"/><path class="cls-2" d="M447.38,176.16c.55.31-.05,1.05.37,1.27.38-.59-.19-.64.29-1Z"/><polygon class="cls-2" points="457.73 180.12 457.74 180.56 457.83 180.31 457.73 180.12"/><polygon class="cls-2" points="444.51 179.77 444.49 179.59 444 179.81 444.51 179.77"/><path class="cls-2" d="M444.47,179.41l0,.18Z"/><polygon class="cls-2" points="458.38 181.33 458.8 181.1 458.76 180.75 458.38 181.33"/><path class="cls-2" d="M453.23,181.82l.15-.43C453.35,181.48,452.78,181.69,453.23,181.82Z"/><polygon class="cls-2" points="442.15 181.75 441.96 182.27 442.04 182.27 442.22 181.76 442.15 181.75"/><path class="cls-2" d="M452.17,185.25c.53.14-.48.66.22.55C452.7,185.39,452.38,185.36,452.17,185.25Z"/><path class="cls-2" d="M445.71,187.18a.27.27,0,0,0-.1.19Z"/><path class="cls-2" d="M445.71,187.18c.15-.16.43-.18.44-.38C445.81,186.84,445.79,187,445.71,187.18Z"/><path class="cls-2" d="M444,189l.16-.12c0,.31.07.22.06,0s0-.25,0-.34l0-.22v.24C444,188.73,443.84,188.88,444,189Z"/><path class="cls-2" d="M432,189.8c.64-.38.83-.45,1.06-.17.56-.39.05-.77.24-1.16C432.77,189.06,432.54,189.06,432,189.8Z"/><path class="cls-2" d="M433.27,188.47l.17-.21A.52.52,0,0,0,433.27,188.47Z"/><polygon class="cls-2" points="448.89 189.79 448.97 190.5 449.03 190.33 448.89 189.79"/><path class="cls-2" d="M431.09,190.42c.11-.08.25-.24.41-.22C431.27,189.91,431,190.5,431.09,190.42Z"/><path class="cls-2" d="M438.1,193.55c.21.1.44-.32.63-.39C438.51,193.32,437.88,193,438.1,193.55Z"/><path class="cls-2" d="M430.69,192.94a.47.47,0,0,1,.58.23C431.28,192.91,431,192.27,430.69,192.94Z"/><polygon class="cls-2" points="437.12 194.43 437.28 194.44 437.46 193.93 437.12 194.43"/><path class="cls-2" d="M442.17,197c.08-.69-1.37-.12-.95-1.06-1.19.55.5.38-.19,1A1,1,0,0,1,442.17,197Z"/><path class="cls-2" d="M441,196.91a1.37,1.37,0,0,0-.21.15A1.27,1.27,0,0,0,441,196.91Z"/><path class="cls-2" d="M433.56,200.44a.66.66,0,0,0,0-.23A.8.8,0,0,0,433.56,200.44Z"/><path class="cls-2" d="M439.23,199.21l.12-1.05c-.08.7-1.09,1.66-.57,2.06a1.22,1.22,0,0,0,.64-1.08Z"/><path class="cls-2" d="M424.15,197.54l.07-.44-.37.26C424,197.34,424.19,197.84,424.15,197.54Z"/><path class="cls-2" d="M423.78,197.41l.07,0A.1.1,0,0,0,423.78,197.41Z"/><path class="cls-2" d="M434.45,199.12a1.17,1.17,0,0,0,.45-.58C434.75,198.52,434.19,198.91,434.45,199.12Z"/><polygon class="cls-2" points="423.03 199.99 423.37 199.49 422.95 199.98 423.03 199.99"/><polygon class="cls-2" points="420.29 201.14 420.13 201.13 419.95 201.64 420.11 201.65 420.29 201.14"/><path class="cls-2" d="M431.88,207.69c.34-.23.15-.86,0-.88l-.54.57c.5.22.15-.16.56-.39Z"/><path class="cls-2" d="M406.44,216.25c-.12-.36.63-.82.89-.62,0,.18-.22.6.13.54l-.11-1.07c1-.26.29,1.27.19,1.79.72-.57.53-1.15,1.22-1.83a1.18,1.18,0,0,1-.77.1c-.44-.39.39-.84.81-1.33-.47.11-.46-.21-.41-.59a.2.2,0,0,0,0-.15V213l-.05.06a.48.48,0,0,0-.23-.14c-.26.51-.9.45-1.16.69.93.44-.68,1-.78,1.51l-.3.43-.13.13c-.1,0-.16-.18-.09-.51,0,.3-.65.82-.38,1l-1.29,1.3a.54.54,0,0,1-.22,0,.16.16,0,0,0,.06.16l-5.63,5.67c.34-.22.73-.31,1.1-.52,0,.89.55-.39.85.17a.85.85,0,0,1-.65.65c.15.27.59.23.81.51,1-.44.07-1.58.93-2.12.23.29.24.73.66.24l-.06.17c.44-1,1.15,0,.91-1.15l.36.39c.05-.61.69-1.26,1-1.67l.05.09c.59-1.44.48-.66,1.45-2l-.1,1c.58-.21.2-.77.53-1,.05.1.39.3.19.64l.73-2.05C407,216,406.65,216.36,406.44,216.25Z"/><path class="cls-2" d="M408.76,215.06a1,1,0,0,0,.27-.24A1.64,1.64,0,0,0,408.76,215.06Z"/><path class="cls-2" d="M397.83,223.65l.39-.4A1.36,1.36,0,0,0,397.83,223.65Z"/><path class="cls-2" d="M409.94,212.26c-.43.05-.09-.45-.19-.64l-.86.87c.15.14.23.39.37.5Z"/><path class="cls-2" d="M408.37,212.47a.87.87,0,0,1,.05.49l.47-.47C408.78,212.38,408.63,212.34,408.37,212.47Z"/><polygon class="cls-2" points="416.11 220.07 415.96 220.23 415.84 220.57 416.11 220.07"/><path class="cls-2" d="M413.08,221.81c.4,0,.58-.47.64-.64C413.33,221.57,413.42,221.32,413.08,221.81Z"/><polygon class="cls-2" points="415.9 223.66 415.64 224.17 415.72 224.18 415.9 223.66"/><path class="cls-2" d="M396.35,228.05l-.17.21A.71.71,0,0,0,396.35,228.05Z"/><path class="cls-2" d="M399.3,224.41c-1.34.49.26-.95-.57-1.2l-.32.67-.1-.18-.56.65c.37.12.48,0,.71.33-.92.71-.57-.05-1.49.21l-.86,1v-.15a.2.2,0,0,0-.05.21l-2.91,3.21c-.36.76.77.16.74.95.64-.64,1.88-1.32,1.42-1.89.05.09.15.28.34.21l-.05-.8-.49.22c-.05-.8,1.26-1.91,1.75-1.87-.55.83.3,1-.94,1.68.18.09.58.14.44.43C397.33,226.78,398.57,226,399.3,224.41Z"/><path class="cls-2" d="M388.23,235.9l0-.06S388.21,235.91,388.23,235.9Z"/><path class="cls-2" d="M388.67,235.58l.05-1.05-.82.89.29.42c0-.16.11-.64.37-.62Z"/><path class="cls-2" d="M389.05,233.59a.6.6,0,0,0,.58.94c-.21.59-.66-.24-.5.48.31.29.63-.38.69-.55Z"/><polygon class="cls-2" points="392.54 230.57 392.59 230.86 392.94 230.6 392.54 230.57"/><path class="cls-2" d="M392.59,230.86l-.35.26a1.37,1.37,0,0,0,.43.25Z"/><path class="cls-2" d="M391.32,231.79a3.72,3.72,0,0,0-.51.38Z"/><path class="cls-2" d="M391.77,231.55l-.06,0-.39.28Z"/><path class="cls-2" d="M392.24,231.12c-.34-.25-.71-.5-1.07,0l.54.37Z"/><polygon class="cls-2" points="412.66 226.01 412.48 226.52 412.56 226.53 412.74 226.01 412.66 226.01"/><path class="cls-2" d="M410.38,227.73a2.93,2.93,0,0,0-.05.37A.53.53,0,0,0,410.38,227.73Z"/><path class="cls-2" d="M410.88,231.22c-.7.11.18-.95-.71-.33a.68.68,0,0,1,.15-1.13c.23.28-.18.51.3.55-.06-.53.24-.42-.23-.72.15-.64-.08-1-.06-1.49-.31.65-1.72,1.26-1.84,2.37.13.8,1,1.24,1.64,1.92C410.34,232.49,411.29,231.7,410.88,231.22Z"/><path class="cls-2" d="M412.19,231.26a.65.65,0,0,0,.32-.42C412.25,230.64,412.34,231.09,412.19,231.26Z"/><path class="cls-2" d="M402.78,230.49c.06.13-.17.59.07.69l.4-.64C403.12,230.64,403,230.57,402.78,230.49Z"/><path class="cls-2" d="M403.43,230.26l-.18.28A.52.52,0,0,0,403.43,230.26Z"/><path class="cls-2" d="M402.7,230.46l.08,0A.05.05,0,0,0,402.7,230.46Z"/><path class="cls-2" d="M389.89,232.88c-.18-.2-.3.14-.36.32C389.64,233.12,389.83,233.05,389.89,232.88Z"/><path class="cls-2" d="M381.89,242.27l-.35.06A.45.45,0,0,0,381.89,242.27Z"/><path class="cls-2" d="M383.77,250.47a.42.42,0,0,1,.06.14A.33.33,0,0,0,383.77,250.47Z"/><path class="cls-2" d="M383.83,250.61c0,.29-.66.48-.58.87l-.05-.09-.16.42C383.29,251.53,383.89,251,383.83,250.61Z"/><path class="cls-14" d="M404,284.1a5.64,5.64,0,0,0-8,0l-3.62,3.62c4.67,3.81,7.87,8.66,7.37,15.79-.72,10.14-6.87,20.32-13.28,27.88-13.3,15.73-74.13,66.44-75.63,68.34l5.84,5.83a5.66,5.66,0,0,0,8,0l96.35-96.44a5.64,5.64,0,0,0,0-8Z"/><path class="cls-15" d="M385,308.34c-5-5.36-31.5,24.4-43.75,36.91s-39.67,37.5-34.08,43,42.08-33.26,51.08-43S389.75,313.42,385,308.34Z"/></g></g></svg>