<svg xmlns="http://www.w3.org/2000/svg" xmlns:xlink="http://www.w3.org/1999/xlink" viewBox="0 0 354.14 248.8"><defs><style>.cls-1{isolation:isolate}.cls-2{fill:#f5f2e5}.cls-3{fill:#fffef5}.cls-4{fill:#efe6e3}.cls-5{fill:#f8f7ef;mix-blend-mode:multiply}.cls-6{fill:url(#radial-gradient)}.cls-7{fill:url(#radial-gradient-2)}.cls-8{fill:#c2c1bc}.cls-9{fill:#a2a29e}.cls-10{fill:#dab25b}.cls-11{fill:#f4ce66}.cls-12{fill:#dfb65c}.cls-13{fill:#ece9dd}.cls-14{fill:#ec626a}.cls-15{fill:#ffed00}.cls-16{fill:#f9cc41}.cls-17,.cls-19{fill:#fff}.cls-17{mix-blend-mode:soft-light}.cls-18{fill:#4c4c4c}</style><radialGradient id="radial-gradient" cx="263.85" cy="226.29" r="8.16" gradientTransform="translate(10.15 -10.8) rotate(2.6)" gradientUnits="userSpaceOnUse"><stop offset="0" stop-color="#452711"/><stop offset="1"/></radialGradient><radialGradient id="radial-gradient-2" cx="277.43" cy="225.55" r="8.16" gradientTransform="matrix(-1, -0.05, -0.05, 1, 509.68, 12.58)" xlink:href="#radial-gradient"/></defs><title>NotFound</title><g class="cls-1"><g id="OBJECTS"><path d="M314.67,229.54a72.08,72.08,0,1,1-68.73-75.28A72.07,72.07,0,0,1,314.67,229.54Z" class="cls-2" transform="translate(-67.93 -105.45)"/><path d="M310.37,229.34a67.77,67.77,0,1,1-64.63-70.78A67.77,67.77,0,0,1,310.37,229.34Z" class="cls-3" transform="translate(-67.93 -105.45)"/><path d="M292.87,228.55A50.25,50.25,0,1,1,245,176.07,50.26,50.26,0,0,1,292.87,228.55Z" class="cls-4" transform="translate(-67.93 -105.45)"/><path d="M291.3,228.48a48.68,48.68,0,1,1-46.42-50.84A48.68,48.68,0,0,1,291.3,228.48Z" class="cls-3" transform="translate(-67.93 -105.45)"/><path d="M206.81,236.3a48.68,48.68,0,0,1,75.34-38.49A48.67,48.67,0,1,0,216,267,48.45,48.45,0,0,1,206.81,236.3Z" class="cls-5" transform="translate(-67.93 -105.45)"/><path d="M271.64,227.58a8.16,8.16,0,1,1-7.78-8.52A8.16,8.16,0,0,1,271.64,227.58Z" class="cls-6" transform="translate(-67.93 -105.45)"/><path d="M214.16,225a8.16,8.16,0,1,0,8.52-7.78A8.15,8.15,0,0,0,214.16,225Z" class="cls-7" transform="translate(-67.93 -105.45)"/><path d="M248.19,226.52a5.18,5.18,0,1,1-4.94-5.41A5.18,5.18,0,0,1,248.19,226.52Z" class="cls-8" transform="translate(-67.93 -105.45)"/><path d="M245.38,225.58l-1.63-.08.07-1.62a.7.7,0,1,0-1.39-.07l-.07,1.63-1.63-.08a.72.72,0,0,0-.73.67.7.7,0,0,0,.67.73l1.62.07-.07,1.63a.7.7,0,1,0,1.39.06l.08-1.62,1.62.07a.7.7,0,0,0,.07-1.39Z" class="cls-9" transform="translate(-67.93 -105.45)"/><path d="M244.88,177.64c-1.31-.06-2.61,0-3.9,0l-.32,7.06a3.89,3.89,0,1,0,7.77.36l.32-7.06C247.47,177.83,246.18,177.7,244.88,177.64Z" class="cls-10" transform="translate(-67.93 -105.45)"/><path d="M244.88,177.64a26.46,26.46,0,0,0-2.82,0l-.32,7.06c-.1,2.15,1.08,3.95,2.63,4s2.89-1.62,3-3.76l.32-7.06A23.73,23.73,0,0,0,244.88,177.64Z" class="cls-11" transform="translate(-67.93 -105.45)"/><path d="M240.46,274.9c-1.31-.06-2.6-.19-3.88-.35l.32-7.06a3.89,3.89,0,1,1,7.77.35l-.32,7.06C243.07,275,241.77,275,240.46,274.9Z" class="cls-12" transform="translate(-67.93 -105.45)"/><path d="M240.46,274.9c-1,0-1.88-.16-2.8-.3l.32-7.06c.1-2.15,1.43-3.83,3-3.76s2.73,1.87,2.63,4l-.32,7.07C242.35,274.91,241.41,274.94,240.46,274.9Z" class="cls-11" transform="translate(-67.93 -105.45)"/><path d="M199.07,247.92l.73-16a6.08,6.08,0,0,0-5.79-6.34h0A48.44,48.44,0,0,0,199.07,247.92Zm-4.92-25.37h0a6.07,6.07,0,0,0,6.33-5.78l.73-16A48.28,48.28,0,0,0,194.15,222.55Z" class="cls-13" transform="translate(-67.93 -105.45)"/><path d="M291.23,230h0a6.06,6.06,0,0,0-6.34,5.78l-.72,16A48.44,48.44,0,0,0,291.23,230Zm-4.93-25.37-.72,16a6.06,6.06,0,0,0,5.78,6.33h0A48.3,48.3,0,0,0,286.3,204.62Z" class="cls-13" transform="translate(-67.93 -105.45)"/><path d="M96.19,152.2l-1.75-1.37c.07-.08,6.48-8.44,6.39-18.43l2.22,0C103.14,143.16,96.48,151.83,96.19,152.2Z" class="cls-14" transform="translate(-67.93 -105.45)"/><path d="M97.17,153.73,95.09,153c.15-.41,3.85-10.08,19.36-15.85l.77,2.08C100.74,144.58,97.21,153.63,97.17,153.73Z" class="cls-15" transform="translate(-67.93 -105.45)"/><path d="M147.44,293.4c0-.33-1.53-33.09-1.11-66.93,0-.74,0-1.46,0-2.18a66.15,66.15,0,0,0,7.45-10c14.09-23.16,16.42-55.92,8.45-66.49a9.87,9.87,0,0,0-10.73-3.91c-7.68,2.11-14.93,12.86-16.18,75.87-7.8,7.23-18.62,11.9-33.5,9.37-11.5-2-18.47-6.45-21.33-13.74-7.26-18.53,12.77-52.11,23.27-66.62q-4.23-3.65-8.12-7.66c-6.81,9.29-36,51.47-25.48,78.32,4.34,11.07,14.36,18,29.8,20.63,13.06,2.22,25,0,35.19-6.32-.15,31.42,1.17,59.91,1.19,60.23a5.53,5.53,0,0,0,4.6,5.2,5.26,5.26,0,0,0,1.19.08A5.55,5.55,0,0,0,147.44,293.4ZM147,203.77c1.56-35.2,5.36-45.47,7.11-48.37,2.84,5.8,2.86,27.68-6.55,47.23Z" class="cls-16" transform="translate(-67.93 -105.45)"/><path d="M143.9,295.12a1.09,1.09,0,0,1-.92-1.06c-.15-6.47-.35-12.95-.55-19.45-.5-16.1-1-32.43-.82-48.81a46.64,46.64,0,0,1-24.94,10.71A46.12,46.12,0,0,1,80,225a1.39,1.39,0,0,1-.21-.27c-13.31-23.67,1.12-47.44,13.86-68.42,1.64-2.71,3.2-5.27,4.68-7.81a1.11,1.11,0,1,1,1.92,1.12c-1.5,2.55-3.06,5.12-4.71,7.84-12.39,20.41-26.43,43.54-13.9,66a45.09,45.09,0,0,0,60.05-.73c.36-22.4,2.08-44.87,6.93-66.95.41-2.43,2-4.69,4.83-6.67,1.66-1.18,4.56-2,6-.25a9.78,9.78,0,0,1,3.91,5.59c2.92,12.67,1.71,26.24-3.79,42.78L154,209.93a.72.72,0,0,1-.12.21,53.72,53.72,0,0,0-4.5,7,.37.37,0,0,1-.06.1,42.56,42.56,0,0,1-5.44,6.53c-.25,17,.28,34.05.79,50.81.2,6.5.4,13,.56,19.45a1.11,1.11,0,0,1-1.08,1.14Zm13.41-145a4.19,4.19,0,0,0-2.61.82c-2.3,1.63-3.63,3.41-3.95,5.29-4.64,21.17-6.4,42.72-6.84,64.23a41.19,41.19,0,0,0,3.52-4.47,54.59,54.59,0,0,1,4.56-7.08l5.46-12.45c5.33-16,6.52-29.23,3.71-41.4a7.46,7.46,0,0,0-3.2-4.48,1,1,0,0,1-.25-.25A.6.6,0,0,0,157.31,150.14Z" class="cls-17" transform="translate(-67.93 -105.45)"/><path d="M155.18,352.93h0a2.41,2.41,0,0,0,2.23-2.58l-1.13-15.49-4.81.35,1.12,15.49A2.42,2.42,0,0,0,155.18,352.93Z" class="cls-11" transform="translate(-67.93 -105.45)"/><path d="M137.2,354.24h0a2.43,2.43,0,0,0,2.24-2.59l-1.13-15.48-4.81.35L134.62,352A2.43,2.43,0,0,0,137.2,354.24Z" class="cls-11" transform="translate(-67.93 -105.45)"/><rect width="33.27" height="5.27" x="128.18" y="331.26" class="cls-18" transform="translate(245.54 550.95) rotate(175.84)"/><path d="M142.37,300.23h0a20.06,20.06,0,0,1,21.46,18.55l1,13.58-40,2.91-1-13.58A20.06,20.06,0,0,1,142.37,300.23Z" class="cls-13" transform="translate(-67.93 -105.45)"/><path d="M138.11,319.93a5.18,5.18,0,1,1,5.54,4.79A5.17,5.17,0,0,1,138.11,319.93Z" class="cls-8" transform="translate(-67.93 -105.45)"/><path d="M141,320.54l1.62-.12.12,1.62a.7.7,0,0,0,.75.65.7.7,0,0,0,.64-.75l-.12-1.62,1.63-.12a.7.7,0,0,0-.1-1.4l-1.63.12-.12-1.62a.7.7,0,1,0-1.39.1l.12,1.63-1.62.11a.7.7,0,0,0-.65.75A.71.71,0,0,0,141,320.54Z" class="cls-9" transform="translate(-67.93 -105.45)"/><rect width="14.72" height="11.21" x="134.95" y="293.78" class="cls-13" transform="translate(238.01 482.22) rotate(175.84)"/><path d="M111.94,123.22a1.76,1.76,0,0,1-.49-.16,1.67,1.67,0,0,1-.71-2.25l7.52-14.47a1.66,1.66,0,1,1,2.95,1.54l-7.52,14.47A1.66,1.66,0,0,1,111.94,123.22Z" class="cls-19" transform="translate(-67.93 -105.45)"/><path d="M117.85,128.16a1.66,1.66,0,0,1-.47-3.13l9.22-4.62a1.67,1.67,0,0,1,1.49,3L118.87,128A1.67,1.67,0,0,1,117.85,128.16Z" class="cls-19" transform="translate(-67.93 -105.45)"/><path d="M103.83,121.28a1.66,1.66,0,0,1-1.38-1.49l-.79-8.57a1.66,1.66,0,1,1,3.31-.31l.8,8.58a1.67,1.67,0,0,1-1.51,1.81A2,2,0,0,1,103.83,121.28Z" class="cls-19" transform="translate(-67.93 -105.45)"/><path d="M351.9,167.66l-1.33-1.76.67.88-.68-.88a19.57,19.57,0,0,0,6.78-15.79l2.21-.13A21.39,21.39,0,0,1,351.9,167.66Z" class="cls-14" transform="translate(-67.93 -105.45)"/><path d="M355.79,168l-2.11-.67c.11-.35,2.87-8.78,14.3-14.53l1,2C358.44,160.11,355.82,167.94,355.79,168Z" class="cls-15" transform="translate(-67.93 -105.45)"/><path d="M404.58,323.87c-10.66-2.72-9.43-18.9-9.37-19.59l2.21.18c0,.16-1.14,15,7.71,17.26Z" class="cls-15" transform="translate(-67.93 -105.45)"/><path d="M383.92,323.92l-.66-2.11c12.45-3.91,9.78-17,9.66-17.6l2.16-.47C395.12,303.89,398.32,319.41,383.92,323.92Z" class="cls-14" transform="translate(-67.93 -105.45)"/><path d="M401.1,245c0-.71,0-1.43,0-2.13a66,66,0,0,0,7.53-10c14.28-23,16.89-55.79,9-66.42a9.89,9.89,0,0,0-10.71-4c-7.68,2-15,12.73-16.81,75.73-7.85,7.16-18.71,11.74-33.57,9.09-11.48-2.05-18.42-6.6-21.22-13.92-7.45-19.49,15.22-55.24,25.29-68.35a83.84,83.84,0,0,0-8.73-6.85c-4.9,6.43-37.68,51-26.92,79.15,4.24,11.1,14.21,18.13,29.63,20.88,13,2.33,25,.21,35.24-6-.33,25,.29,48.23.56,56.76a110.87,110.87,0,0,1,11.09,0C401.26,300.09,400.52,272.91,401.1,245Zm.8-22.65c1.86-35.18,5.75-45.41,7.52-48.3,2.79,5.83,2.63,27.7-6.95,47.17C402.29,221.62,402.1,222,401.9,222.37Z" class="cls-16" transform="translate(-67.93 -105.45)"/><path d="M398.42,246.9c0-1.94.09-3.84.15-5.69a61.51,61.51,0,0,0,8-10.35,89.79,89.79,0,0,0,12.13-35.66c1.41-11.56.29-21.44-2.92-25.78-2-2.72-4.38-2.78-6-2.35-2.85.75-11.33,3-13.39,73.19-8.53,8.52-21.06,14.89-38.92,11.7-12.45-2.22-20.45-7.71-23.76-16.31-8.42-21.85,14.55-58.5,24.45-72.78-.58-.48-1.16-1-1.75-1.42-10.12,14.43-33.7,51.81-24.77,75,3.61,9.38,12.17,15.34,25.44,17.71,17.66,3.15,30.34-2.59,39.23-10.72,0,1.13-.06,2.27-.08,3.43-.53,23.89-.18,47.71.15,62l2.22,0C398.25,294.64,397.89,270.79,398.42,246.9Zm11.91-77.69a3.22,3.22,0,0,1,1.37-.08,3.74,3.74,0,0,1,2.28,1.61c5.85,7.9,4,37.45-9.32,59a60.81,60.81,0,0,1-6,8.12C400.5,180.59,406.69,170.18,410.33,169.21Z" class="cls-17" transform="translate(-67.93 -105.45)"/><path d="M367.09,141.07a1.54,1.54,0,0,1-.53-.19,1.65,1.65,0,0,1-.62-2.26l6.57-11.6a1.67,1.67,0,0,1,2.9,1.64l-6.58,11.6A1.67,1.67,0,0,1,367.09,141.07Z" class="cls-19" transform="translate(-67.93 -105.45)"/><path d="M371.11,145.92a1.66,1.66,0,0,1-.29-3.19l8.85-3.31a1.66,1.66,0,0,1,1.16,3.12l-8.85,3.3A1.64,1.64,0,0,1,371.11,145.92Z" class="cls-19" transform="translate(-67.93 -105.45)"/><path d="M361,139.6a1.65,1.65,0,0,1-1.37-1.67l.23-9.72a1.67,1.67,0,1,1,3.33.08l-.24,9.72a1.66,1.66,0,0,1-1.7,1.62A1,1,0,0,1,361,139.6Z" class="cls-19" transform="translate(-67.93 -105.45)"/><path d="M393.5,348.55a1.65,1.65,0,0,1-1.37-1.68l.3-10.09a1.66,1.66,0,1,1,3.32.1l-.3,10.08a1.67,1.67,0,0,1-1.71,1.62Z" class="cls-19" transform="translate(-67.93 -105.45)"/><path d="M405.88,344.38a1.66,1.66,0,0,1-1.28-1.1l-2.7-8a1.66,1.66,0,1,1,3.15-1.06l2.7,8a1.66,1.66,0,0,1-1,2.11A1.69,1.69,0,0,1,405.88,344.38Z" class="cls-19" transform="translate(-67.93 -105.45)"/><path d="M381.84,342.34a1.61,1.61,0,0,1-.54-.2,1.65,1.65,0,0,1-.6-2.27l4.34-7.49a1.66,1.66,0,1,1,2.87,1.67l-4.34,7.49A1.66,1.66,0,0,1,381.84,342.34Z" class="cls-19" transform="translate(-67.93 -105.45)"/></g></g></svg>